<?xml version="1.0" standalone="no"?>
<!DOCTYPE svg PUBLIC "-//W3C//DTD SVG 20010904//EN"
 "http://www.w3.org/TR/2001/REC-SVG-20010904/DTD/svg10.dtd">
<svg version="1.0" xmlns="http://www.w3.org/2000/svg"
 width="1377.000000pt" height="1377.000000pt" viewBox="0 0 1377.000000 1377.000000"
 preserveAspectRatio="xMidYMid meet">
<metadata>
Created by potrace 1.11, written by Peter Selinger 2001-2013
</metadata>
<g transform="translate(0.000000,1377.000000) scale(0.100000,-0.100000)"
fill="#000000" stroke="none">
<path d="M2891 13648 c-6 -7 -25 -34 -42 -60 -17 -27 -35 -48 -40 -48 -5 0 -9
-6 -9 -13 0 -8 -10 -22 -21 -33 -12 -10 -37 -44 -57 -74 -19 -30 -43 -61 -53
-68 -11 -7 -19 -19 -19 -26 0 -7 -27 -41 -59 -77 -57 -61 -58 -64 -34 -67 13
-2 30 3 36 11 9 11 18 13 34 7 21 -9 21 -9 3 -46 -11 -20 -17 -40 -15 -44 3
-4 28 -10 57 -12 43 -5 57 -11 78 -37 15 -17 32 -31 38 -31 6 0 16 -9 22 -21
6 -11 57 -50 113 -86 56 -36 108 -74 115 -85 7 -10 30 -27 50 -37 45 -24 152
-123 152 -141 0 -7 10 -21 23 -32 12 -11 37 -33 56 -50 l34 -31 -7 42 c-7 44
-13 58 -72 151 -19 30 -37 72 -41 93 -4 30 -12 41 -32 48 -52 19 -69 32 -184
145 -64 63 -122 114 -129 114 -9 0 -9 3 2 10 10 6 24 3 46 -11 22 -13 59 -22
113 -26 l81 -6 0 37 c0 20 -13 65 -30 100 -16 35 -31 79 -33 97 -3 19 -14 57
-26 84 -27 61 -89 194 -100 215 -11 20 -37 24 -50 8z m-71 -433 c0 -9 11 -20
25 -25 14 -5 25 -14 25 -20 0 -11 -43 -14 -54 -3 -4 4 -17 8 -29 8 -25 0 -36
33 -15 46 21 14 48 10 48 -6z m80 -95 c0 -5 -4 -10 -10 -10 -5 0 -10 5 -10 10
0 6 5 10 10 10 6 0 10 -4 10 -10z"/>
<path d="M2540 13149 c0 -5 5 -7 10 -4 6 3 10 8 10 11 0 2 -4 4 -10 4 -5 0
-10 -5 -10 -11z"/>
<path d="M2505 13130 c-3 -6 1 -7 9 -4 18 7 21 14 7 14 -6 0 -13 -4 -16 -10z"/>
<path d="M2567 12434 c-8 -9 11 -44 24 -44 13 0 72 -41 82 -58 7 -10 12 -10
23 -1 10 8 14 8 14 1 0 -6 7 -9 15 -6 10 4 13 0 10 -14 -2 -11 3 -28 12 -39
13 -16 14 -16 9 0 -3 9 -1 17 4 17 5 0 12 -9 15 -20 3 -11 14 -20 24 -20 33 0
31 13 -4 37 -20 13 -33 28 -30 34 4 5 10 7 15 4 5 -3 4 8 -1 25 -6 16 -16 33
-22 37 -6 4 -8 0 -4 -10 3 -10 2 -17 -4 -17 -5 0 -12 13 -15 30 -4 16 -10 27
-15 25 -4 -3 -6 -12 -2 -20 6 -18 3 -18 -32 -5 -17 7 -24 7 -20 0 4 -6 -5 -10
-19 -10 -27 0 -35 15 -13 23 6 3 3 6 -7 6 -11 1 -27 8 -36 16 -9 8 -19 12 -23
9z"/>
<path d="M3055 12319 c5 -14 4 -19 -4 -15 -6 4 -19 3 -28 -3 -17 -9 -17 -10 0
-16 14 -6 12 -12 -20 -36 -20 -16 -38 -27 -41 -25 -6 7 -32 -20 -32 -34 0 -6
4 -9 9 -5 5 3 13 0 17 -6 4 -6 -1 -16 -10 -21 -9 -5 -16 -16 -16 -24 0 -8 -7
-17 -15 -20 -8 -4 -15 -10 -15 -16 0 -5 5 -6 10 -3 6 3 10 1 10 -4 0 -18 -4
-25 -15 -27 -34 -6 -91 -41 -87 -53 3 -8 0 -11 -7 -7 -6 4 -11 2 -11 -4 0 -6
-4 -9 -9 -6 -5 3 -14 -1 -21 -9 -10 -12 -9 -15 4 -15 30 0 14 -47 -21 -61 -13
-5 -22 -13 -18 -19 3 -5 12 -7 19 -4 8 3 17 1 20 -4 3 -5 -12 -12 -34 -16 -39
-6 -46 -15 -41 -53 1 -8 -10 -13 -26 -13 -36 0 -58 -32 -43 -60 6 -11 18 -20
28 -21 10 0 12 -3 5 -6 -22 -8 -14 -25 8 -18 18 6 19 4 10 -13 -8 -16 -6 -26
11 -48 12 -16 25 -31 28 -34 3 -3 6 -16 8 -30 2 -14 9 -30 16 -35 7 -6 16 -20
20 -33 9 -27 46 -30 46 -4 0 11 9 27 19 36 11 10 24 39 30 64 5 26 21 81 35
122 14 41 26 84 26 95 0 43 58 144 82 145 14 0 55 -46 67 -77 15 -38 8 -68
-33 -127 -14 -21 -26 -49 -26 -62 0 -13 -4 -24 -10 -24 -5 0 -10 -6 -11 -12 0
-7 -28 -37 -63 -66 -50 -42 -63 -59 -64 -83 0 -16 3 -27 8 -24 5 3 11 1 15 -5
3 -6 -1 -13 -10 -16 -10 -4 -15 -16 -13 -33 2 -19 -1 -26 -13 -25 -14 1 -13
-6 8 -47 23 -46 54 -75 66 -62 3 3 4 -10 0 -29 -6 -39 7 -55 34 -40 15 9 14
10 -4 16 -16 5 -19 15 -19 59 1 37 6 59 19 71 22 23 22 32 -4 39 -12 3 -18 10
-14 16 3 6 11 9 16 5 14 -8 38 26 39 53 0 23 20 44 20 21 0 -7 6 -2 13 12 7
13 22 30 35 36 12 6 19 14 16 17 -12 12 26 38 46 32 13 -4 23 0 32 14 7 12 21
21 31 21 10 0 15 5 12 10 -7 12 -44 -5 -62 -29 -11 -14 -12 -13 -13 7 0 12 7
25 15 28 8 4 15 12 15 20 0 8 5 14 11 14 6 0 9 7 5 15 -4 10 1 15 14 15 21 0
27 -15 10 -25 -6 -4 -3 -15 7 -30 13 -16 22 -20 30 -13 12 10 57 13 98 6 14
-2 20 3 20 17 0 11 -6 20 -14 20 -30 0 -21 24 13 35 20 6 36 16 36 21 0 15 23
35 47 43 12 4 25 16 28 27 4 10 13 19 21 19 8 0 14 7 14 15 0 9 7 18 15 21 8
4 15 11 15 17 0 6 7 19 16 29 15 15 16 27 7 80 -6 35 -18 79 -26 98 l-15 35 5
-35 c5 -33 1 -39 -64 -96 -37 -33 -79 -67 -93 -76 -36 -24 -92 -79 -112 -109
-9 -15 -26 -29 -37 -32 -35 -9 -15 34 39 85 27 25 50 50 51 55 0 4 16 28 35
53 18 25 42 56 51 70 9 14 39 47 65 74 47 47 47 49 32 77 -13 26 -53 42 -54
22 -1 -19 -43 -56 -65 -59 -14 -1 -31 -9 -40 -17 -13 -14 -13 -16 3 -20 16 -4
16 -5 0 -6 -22 -1 -24 -19 -3 -27 20 -8 19 -20 -1 -28 -12 -4 -15 -2 -10 9 8
22 -13 18 -59 -11 -36 -23 -37 -25 -12 -20 l29 7 -18 -30 c-10 -16 -28 -32
-41 -36 -13 -3 -23 -12 -23 -20 0 -7 -9 -17 -20 -20 -11 -3 -20 -10 -20 -14 0
-12 -63 0 -81 16 -12 10 -16 27 -13 62 3 44 1 48 -16 44 -11 -3 -20 0 -20 6 0
6 4 11 9 11 5 0 7 8 4 19 -5 20 21 116 37 136 7 8 7 21 1 38 -8 21 -7 25 4 20
11 -4 15 2 15 20 0 14 -7 28 -16 31 -12 5 -14 1 -9 -15z m-26 -294 c-8 -9 -26
-17 -38 -20 -23 -4 -23 -4 -6 15 10 11 27 20 39 20 18 0 19 -2 5 -15z m139
-141 c-9 -9 -21 -13 -27 -9 -16 10 -3 25 22 25 20 0 20 -1 5 -16z m67 -134 c3
-5 1 -10 -4 -10 -6 0 -11 5 -11 10 0 6 2 10 4 10 3 0 8 -4 11 -10z"/>
<path d="M2788 12233 c7 -3 16 -2 19 1 4 3 -2 6 -13 5 -11 0 -14 -3 -6 -6z"/>
<path d="M2635 12223 c4 -8 -1 -13 -14 -13 -11 0 -23 -4 -26 -10 -4 -6 6 -7
25 -4 19 4 30 2 30 -5 0 -7 10 -9 28 -5 42 10 53 27 13 20 -25 -3 -39 0 -49
12 -7 9 -11 11 -7 5z"/>
<path d="M2767 11953 c-4 -3 -7 -11 -7 -17 0 -6 5 -5 12 2 6 6 9 14 7 17 -3 3
-9 2 -12 -2z"/>
<path d="M2622 11834 c-29 -21 6 -25 40 -4 l33 20 -29 -2 c-15 -2 -35 -8 -44
-14z"/>
<path d="M3555 11813 c-12 -2 -40 -21 -63 -42 -23 -21 -44 -36 -47 -33 -3 3
-5 0 -5 -6 0 -7 -6 -12 -14 -12 -8 0 -17 -7 -20 -17 -6 -15 -8 -14 -20 2 -12
17 -13 16 -11 -6 1 -20 8 -25 43 -30 30 -4 42 -2 42 7 0 8 12 12 31 12 17 -1
34 4 39 11 5 10 16 10 44 3 32 -9 59 -1 38 12 -5 3 -7 19 -4 36 3 24 1 29 -11
25 -11 -5 -13 0 -10 19 3 14 1 25 -3 25 -5 -1 -18 -4 -29 -6z"/>
<path d="M3403 11275 c-15 -20 -46 -55 -68 -78 -22 -23 -56 -62 -75 -86 -42
-51 -84 -99 -106 -123 -16 -16 -16 -19 0 -43 14 -22 20 -24 32 -14 8 7 21 27
29 45 7 18 23 37 34 44 12 6 21 19 21 28 0 10 24 44 54 77 30 32 60 70 67 84
8 14 24 40 36 57 41 56 21 63 -24 9z"/>
<path d="M3818 10969 c-10 -10 -18 -25 -18 -33 0 -7 -7 -19 -15 -26 -8 -7 -15
-19 -15 -26 0 -8 -4 -14 -10 -14 -5 0 -10 -9 -10 -20 0 -11 -4 -20 -9 -20 -8
0 -18 -26 -21 -55 -1 -5 -8 -14 -16 -18 -8 -5 -12 -13 -9 -18 4 -5 -4 -26 -17
-47 -12 -20 -23 -42 -24 -48 -3 -23 -48 -74 -73 -85 -26 -12 -25 -12 89 -127
63 -63 131 -125 150 -138 70 -47 85 -59 93 -72 5 -7 12 -10 18 -7 5 4 16 -1
25 -9 14 -15 14 -16 -3 -16 -16 0 83 -58 130 -76 9 -3 17 -10 17 -14 0 -5 14
-11 30 -15 17 -4 28 -11 25 -16 -4 -5 0 -6 8 -4 15 6 18 75 4 75 -5 0 -7 6 -4
14 7 17 -18 40 -32 31 -6 -3 -26 -3 -46 1 -41 7 -45 27 -14 61 l22 22 -40 83
c-47 98 -73 166 -103 268 -25 87 -59 188 -70 210 -4 8 -10 35 -13 60 -7 59
-18 100 -26 99 -3 0 -14 -9 -23 -20z"/>
<path d="M8010 10789 c-14 -6 -68 -22 -120 -35 -52 -14 -140 -38 -195 -54 -88
-26 -251 -71 -368 -101 -26 -7 -46 -22 -66 -50 -43 -59 -410 -365 -496 -413
-84 -48 -217 -148 -277 -210 -53 -54 -60 -58 -90 -52 -73 15 -168 26 -268 32
-136 8 -146 -2 -121 -119 9 -42 8 -55 -15 -113 -15 -35 -30 -67 -35 -70 -5 -3
-9 -13 -9 -23 0 -9 -10 -27 -22 -38 -13 -12 -36 -40 -53 -63 -34 -48 -42 -53
-134 -86 -119 -43 -251 -29 -342 38 -19 13 -51 33 -73 44 -56 28 -105 82 -112
124 -3 19 -14 60 -25 91 -27 78 -26 215 1 269 33 65 31 67 -72 74 -115 8 -215
20 -293 36 -33 7 -82 13 -110 14 -27 1 -60 8 -72 14 -12 7 -26 11 -30 10 -4
-1 -23 2 -41 6 -22 5 -38 4 -45 -3 -8 -8 -5 -11 11 -11 14 0 22 -6 22 -17 0
-15 2 -15 14 2 13 18 15 18 40 2 17 -11 24 -22 19 -30 -7 -12 -9 -17 -12 -36
0 -5 -9 -17 -18 -27 -19 -19 -25 -52 -10 -61 11 -7 -17 -21 -43 -22 -12 -1
-12 1 -1 8 10 6 10 10 1 16 -7 4 -19 0 -28 -9 -16 -16 -15 -20 5 -56 l21 -40
-24 0 c-15 0 -24 -6 -24 -15 0 -8 -7 -15 -16 -15 -8 0 -13 -4 -10 -9 9 -14
-39 -52 -58 -45 -9 4 -16 2 -14 -4 2 -5 0 -9 -3 -9 -3 1 -13 -6 -23 -15 -18
-19 -43 -15 -65 11 -10 12 -14 13 -18 3 -4 -10 -8 -10 -19 -1 -8 7 -17 9 -20
7 -3 -3 -21 -2 -40 2 -22 5 -34 4 -34 -3 0 -6 -11 0 -25 13 -13 12 -22 27 -18
33 3 6 1 7 -6 3 -6 -4 -8 -12 -5 -18 5 -7 -5 -8 -32 -3 -21 5 -47 8 -56 9 -10
0 -18 7 -18 14 0 9 -6 12 -16 8 -9 -3 -21 -6 -27 -6 -8 0 -7 -4 1 -12 12 -12
41 -20 79 -22 11 -1 19 -5 15 -10 -3 -5 5 -7 16 -4 14 4 20 2 15 -5 -4 -6 -1
-8 8 -5 8 3 25 1 39 -5 14 -5 43 -11 66 -12 22 -1 65 -14 94 -29 29 -15 65
-28 79 -31 14 -2 58 -8 96 -13 68 -9 169 -34 210 -52 43 -18 89 -30 118 -30
16 0 52 -13 79 -30 26 -16 52 -30 57 -30 6 0 12 -9 16 -19 3 -11 19 -34 35
-53 16 -18 30 -40 31 -48 1 -8 2 -19 4 -25 1 -5 3 -20 3 -31 1 -14 14 -28 37
-38 19 -9 35 -21 35 -27 0 -10 87 -99 97 -99 3 0 30 -22 60 -50 30 -27 61 -50
68 -50 8 0 19 -9 25 -20 6 -11 16 -20 23 -20 7 -1 26 -18 42 -39 17 -22 44
-47 60 -57 17 -9 51 -35 76 -56 26 -21 50 -38 54 -38 4 0 27 18 51 40 23 21
76 55 116 74 64 31 83 35 159 37 99 2 146 -11 190 -52 17 -16 37 -29 43 -28
26 3 35 -2 30 -16 -4 -8 -2 -15 4 -15 19 0 91 -81 97 -111 4 -16 11 -27 16
-23 13 8 11 -10 -3 -24 -9 -9 -9 -12 1 -12 33 0 -25 -62 -173 -181 -29 -24
-64 -59 -76 -76 -12 -18 -29 -33 -36 -33 -7 0 -17 -6 -21 -14 -4 -7 -21 -20
-38 -29 -16 -8 -39 -24 -50 -34 -45 -42 -99 -46 -678 -47 -512 -1 -551 1 -559
17 -4 9 -12 25 -17 35 -17 34 -35 18 -48 -43 -6 -33 -23 -94 -37 -135 -13 -41
-23 -77 -20 -81 2 -4 -1 -20 -8 -36 -6 -15 -12 -32 -13 -38 -1 -5 -9 -27 -18
-49 -9 -21 -17 -49 -17 -62 0 -12 -4 -26 -10 -29 -6 -3 -10 -19 -10 -35 0 -16
-4 -31 -9 -34 -16 -10 -35 -184 -22 -205 5 -7 20 -14 34 -15 15 -2 24 1 21 5
-3 5 3 9 13 9 11 0 24 5 31 12 9 9 15 9 23 1 8 -8 8 -13 0 -17 -16 -10 -13
-27 3 -24 8 2 15 0 15 -4 2 -23 0 -29 -9 -23 -13 8 -51 -36 -45 -52 2 -7 0
-15 -5 -18 -18 -11 -10 -25 15 -25 32 0 34 -34 3 -51 -18 -10 -24 -8 -35 7
-12 17 -13 17 -13 -5 0 -12 -9 -31 -19 -43 -11 -11 -17 -26 -15 -33 3 -7 -2
-15 -11 -19 -9 -3 -13 -10 -10 -16 3 -5 2 -10 -4 -10 -6 0 -8 -7 -5 -15 4 -8
1 -15 -5 -15 -6 0 -11 -8 -11 -18 0 -21 -22 -72 -32 -72 -3 0 -9 -18 -13 -41
-4 -22 -13 -43 -21 -46 -8 -3 -14 -14 -14 -24 0 -16 -4 -17 -25 -9 -16 6 -25
6 -25 0 0 -5 -7 -7 -15 -4 -8 3 -30 -3 -48 -15 -19 -12 -44 -21 -56 -21 -12 0
-19 -4 -16 -10 3 -5 -10 -19 -29 -31 -20 -12 -36 -24 -36 -29 0 -4 -16 -25
-36 -46 -19 -22 -45 -56 -56 -76 -12 -20 -24 -36 -27 -33 -4 2 -7 -9 -7 -25
-2 -43 -24 -101 -36 -94 -7 5 -8 2 -3 -5 4 -7 3 -23 -3 -34 -10 -21 -27 -114
-24 -130 1 -4 -5 -21 -13 -37 l-16 -30 36 0 c25 0 37 -5 41 -17 3 -10 11 -28
17 -40 13 -29 0 -44 -17 -20 -9 11 -27 17 -55 17 -38 0 -46 6 -42 32 1 9 -52
-1 -64 -13 -5 -5 -22 -9 -37 -9 -23 0 -28 4 -28 25 0 14 4 25 10 25 6 0 6 9 0
26 -6 15 -6 32 -1 42 13 25 11 117 -4 191 -10 44 -11 71 -4 89 6 15 82 159
170 322 87 162 159 303 159 311 0 24 -27 84 -46 103 -15 16 -14 19 12 41 24
21 27 28 19 51 -6 15 -13 26 -16 23 -3 -2 -14 2 -23 10 -12 10 -14 16 -5 22
15 9 5 52 -17 74 -9 9 -14 19 -11 22 11 10 -22 74 -53 103 -36 33 -58 39 -160
41 -81 2 -101 -1 -112 -16 -4 -5 -16 -4 -32 4 -13 8 -31 11 -40 8 -8 -3 -25 4
-38 15 l-23 21 38 -7 c48 -9 54 5 39 88 -20 105 -19 139 1 142 11 1 27 10 37
19 11 10 26 14 38 11 22 -7 101 24 121 48 7 8 17 13 22 10 5 -3 9 4 9 15 0 12
7 21 14 21 8 0 36 20 63 45 26 25 51 45 56 45 4 0 6 4 3 9 -11 17 54 61 97 66
23 2 56 11 72 19 17 9 37 16 46 16 8 0 24 7 35 16 19 15 19 15 -1 6 -27 -13
-132 -27 -173 -23 -18 1 -39 -2 -46 -8 -10 -8 -17 -7 -26 4 -7 8 -16 12 -21 9
-9 -5 -13 9 -10 33 2 14 4 14 -138 -12 -46 -8 -87 -12 -91 -10 -4 2 -24 -5
-46 -15 -21 -11 -44 -20 -51 -20 -6 0 -18 -9 -27 -21 -14 -20 -15 -20 -24 -2
-6 10 -10 21 -11 26 -1 4 -1 8 -2 10 0 1 -2 18 -3 37 -6 76 -26 120 -55 120
-21 0 -54 38 -45 52 4 6 3 8 -4 4 -6 -3 -18 2 -28 11 -11 11 -13 18 -5 21 6 2
11 9 11 15 0 15 -89 17 -92 2 -5 -33 -19 -226 -20 -270 0 -16 3 -79 6 -140 4
-60 7 -134 8 -163 0 -29 4 -55 9 -57 4 -3 6 -12 3 -20 -4 -8 -10 -13 -14 -10
-5 3 -6 -10 -3 -29 3 -19 2 -47 -1 -62 -6 -23 -10 -25 -39 -20 -67 12 -85 14
-180 21 -53 4 -99 11 -101 14 -3 4 -53 6 -111 5 -78 0 -108 3 -112 12 -3 9
-25 12 -74 9 -38 -1 -71 1 -74 5 -2 4 -23 10 -46 14 -36 6 -86 35 -128 74 -9
9 -17 10 -24 3 -7 -7 -16 -2 -28 13 -10 13 -33 29 -51 36 -42 17 -138 81 -138
92 0 5 -4 7 -9 3 -5 -3 -12 -1 -15 4 -3 5 -23 18 -43 29 -84 43 -119 66 -145
91 -15 14 -52 39 -82 54 -53 27 -56 27 -81 11 -14 -9 -25 -20 -25 -24 0 -5 -6
-15 -12 -22 -32 -34 -52 -61 -41 -55 6 4 14 3 18 -3 8 -13 -11 -46 -31 -54
-13 -5 -15 -1 -12 19 3 14 4 25 3 25 -2 0 -27 -30 -58 -67 -82 -101 -92 -112
-219 -217 -65 -54 -118 -103 -118 -110 0 -6 -3 -21 -6 -34 -5 -19 -3 -21 12
-15 11 4 -3 -18 -31 -50 -27 -31 -54 -57 -61 -57 -8 0 -12 -11 -11 -26 2 -33
-28 -57 -43 -34 -8 12 -10 9 -10 -12 0 -43 -17 -78 -35 -72 -8 3 -12 11 -9 18
3 6 -2 2 -10 -8 -9 -11 -16 -23 -16 -28 0 -4 -6 -8 -14 -8 -7 0 -20 -8 -27
-17 -13 -16 -12 -17 3 -5 19 15 38 8 38 -14 0 -21 -48 -67 -61 -59 -6 4 -8 13
-5 21 3 8 1 14 -4 14 -5 0 -10 -6 -12 -14 -2 -8 -24 -38 -50 -67 -25 -30 -78
-91 -118 -136 -39 -46 -75 -83 -81 -83 -5 0 -9 -6 -9 -13 0 -7 -9 -23 -19 -34
-22 -23 -19 -49 11 -98 10 -16 23 -40 30 -53 6 -12 29 -40 50 -63 21 -22 38
-45 38 -52 0 -7 9 -30 21 -51 11 -21 18 -45 15 -52 -3 -8 1 -14 9 -14 8 0 15
-6 15 -13 0 -7 8 -22 18 -33 17 -18 29 -39 66 -111 8 -16 13 -39 12 -53 -1
-14 3 -32 10 -40 6 -8 19 -37 29 -65 9 -27 30 -78 46 -111 16 -34 29 -66 29
-72 0 -5 7 -15 15 -22 8 -7 15 -20 15 -29 0 -10 11 -41 25 -69 14 -29 25 -61
25 -71 0 -11 4 -21 8 -23 10 -4 52 -105 52 -124 0 -8 4 -22 9 -32 40 -79 69
-152 76 -194 3 -17 12 -42 19 -57 8 -14 23 -56 34 -93 12 -37 42 -102 67 -145
25 -43 45 -83 45 -91 0 -23 52 -34 227 -47 98 -7 202 -26 230 -40 15 -8 30
-12 35 -9 5 3 14 -8 21 -25 6 -17 15 -31 20 -31 4 0 5 -5 2 -10 -4 -6 -10 -8
-15 -5 -11 7 -40 -34 -40 -57 0 -10 7 -18 16 -18 8 0 12 -5 9 -10 -3 -6 1 -13
9 -16 9 -3 16 -12 16 -18 0 -16 66 -77 74 -69 3 4 6 -1 6 -10 0 -9 -4 -18 -9
-21 -13 -8 -70 14 -116 45 -51 35 -85 45 -85 26 0 -8 -6 -19 -13 -25 -19 -16
-14 -65 8 -68 32 -5 46 -49 23 -72 -9 -9 -9 -15 0 -24 7 -7 12 -19 12 -27 0
-11 -3 -12 -8 -4 -19 30 -89 -16 -86 -57 1 -8 2 -23 3 -33 1 -16 3 -17 15 -4
8 8 33 17 55 21 23 3 41 11 41 16 0 6 6 10 13 10 8 0 13 20 14 60 1 33 -3 60
-8 60 -5 0 -9 8 -9 18 0 13 2 14 9 4 4 -8 11 -12 14 -10 4 1 16 -6 29 -16 14
-13 36 -19 65 -18 43 0 59 -13 26 -21 -14 -3 -12 -6 11 -16 20 -8 32 -8 41 -1
10 8 16 2 25 -27 7 -21 27 -58 45 -83 60 -83 65 -100 57 -186 -8 -87 2 -134
44 -219 14 -27 26 -61 28 -75 1 -14 6 -38 10 -53 7 -21 4 -33 -11 -50 -18 -21
-35 -54 -83 -161 -21 -47 -76 -114 -85 -104 -3 2 0 19 5 38 11 39 7 48 -15 30
-18 -15 -20 -40 -4 -40 8 0 8 -5 -1 -15 -7 -8 -20 -15 -29 -15 -10 0 -26 -7
-37 -15 -22 -17 -38 -20 -29 -5 9 14 -8 13 -23 -2 -9 -9 -12 -7 -12 11 0 20
-4 22 -22 17 -38 -12 -53 -12 -53 1 0 6 -3 15 -8 19 -4 4 -7 20 -7 35 0 16 -5
40 -12 54 -8 19 -8 29 0 37 6 6 7 19 2 32 -12 33 -10 96 4 96 6 0 20 13 30 27
16 22 17 25 3 20 -11 -4 -17 1 -19 16 -2 12 -9 21 -15 20 -7 -2 -10 3 -7 11 5
12 72 38 91 35 22 -4 25 3 9 20 -10 11 -24 17 -32 14 -8 -3 -17 2 -20 11 -3 9
-9 14 -14 11 -4 -2 -17 5 -30 17 -17 16 -24 18 -30 8 -5 -8 -12 8 -20 44 -6
31 -16 56 -21 56 -5 0 -9 7 -9 16 0 8 5 12 10 9 6 -3 13 1 16 10 4 9 18 21 33
27 l26 10 -32 12 c-39 14 -45 19 -61 59 -10 27 -11 9 -7 -118 3 -82 10 -167
14 -187 5 -20 7 -39 5 -41 -3 -2 2 -17 11 -33 8 -16 15 -35 15 -41 0 -7 5 -13
11 -13 6 0 9 -7 5 -15 -3 -8 -1 -28 6 -43 6 -15 12 -49 13 -77 6 -112 20 -184
47 -249 15 -38 28 -79 28 -91 0 -12 7 -28 16 -36 11 -9 15 -25 12 -49 -2 -29
2 -40 19 -54 19 -14 23 -14 23 -3 0 8 7 17 15 21 8 3 15 13 15 22 0 10 6 25
14 33 8 9 16 23 18 31 2 8 11 23 21 34 9 11 17 28 17 37 0 10 4 20 9 24 5 3
12 19 16 35 4 16 13 34 22 38 8 5 16 21 16 35 1 15 4 27 7 27 3 0 19 26 35 58
17 31 38 64 47 73 10 9 18 24 18 33 0 9 5 16 11 16 6 0 8 -8 5 -17 -3 -10 1
-31 9 -47 8 -15 15 -39 15 -53 0 -13 8 -40 19 -61 10 -20 24 -68 31 -107 8
-38 19 -81 25 -95 7 -14 10 -30 8 -37 -5 -13 21 -68 36 -77 10 -6 81 10 161
37 64 22 162 49 180 51 8 1 25 7 36 13 12 7 41 15 65 19 93 14 139 48 118 86
-5 9 -10 54 -11 101 -3 82 -4 86 -24 81 -12 -3 -25 -1 -29 5 -10 18 4 49 23
47 12 -1 16 6 14 24 -1 14 -7 27 -13 28 -6 3 -6 8 1 17 8 10 8 110 0 110 -7 0
-5 233 2 290 4 39 11 108 14 155 6 95 11 145 15 145 2 0 6 36 13 115 7 87 15
116 32 131 8 6 14 19 14 28 0 24 90 55 140 48 28 -3 43 -1 52 10 8 10 23 13
45 10 18 -3 35 -2 38 3 6 10 115 12 115 2 0 -9 109 -8 137 2 39 13 67 17 136
20 37 2 73 8 80 14 20 16 90 22 132 11 22 -5 46 -11 54 -12 17 -2 67 93 54
102 -9 7 -33 91 -33 119 0 9 -14 30 -30 45 -27 26 -33 56 -8 41 6 -4 9 -1 6 7
-3 8 -16 13 -31 11 -18 -2 -29 4 -36 17 -17 32 -13 41 20 41 24 0 30 -4 25
-15 -3 -8 -1 -15 4 -15 6 0 10 5 10 10 0 14 47 13 73 -2 12 -7 31 -13 42 -15
11 -2 36 -21 55 -42 27 -29 45 -39 77 -43 25 -4 43 -2 43 4 0 5 5 6 11 2 6 -3
15 -1 19 5 4 7 18 12 31 13 24 0 100 12 154 24 37 8 70 8 403 0 273 -7 272 -6
397 -59 49 -21 61 -31 65 -53 3 -19 13 -30 30 -35 15 -4 18 -7 8 -8 -14 -1
-16 -5 -8 -26 5 -14 15 -56 20 -92 6 -37 15 -73 21 -79 5 -7 12 -22 14 -35 7
-33 25 -48 25 -20 0 12 4 20 9 17 4 -3 7 -18 5 -33 -1 -15 3 -41 11 -59 16
-38 45 -48 166 -59 l76 -6 13 46 c7 25 13 59 14 75 1 17 7 32 14 35 6 2 12 13
12 24 0 11 5 23 10 26 6 3 10 17 10 31 0 13 4 24 9 24 6 0 7 15 4 34 -3 19 -1
36 6 40 19 12 12 34 -11 38 -13 2 -23 10 -23 18 0 22 57 21 255 -5 60 -8 141
-13 279 -19 78 -3 116 -9 122 -17 10 -16 -7 -29 -38 -29 -12 0 -24 -4 -27 -9
-3 -5 -26 -12 -50 -15 -24 -4 -52 -16 -61 -26 -10 -11 -28 -20 -40 -20 -11 0
-30 -7 -41 -15 -10 -8 -34 -15 -51 -15 -19 0 -41 -8 -53 -20 -11 -11 -28 -20
-37 -20 -10 0 -33 -16 -52 -35 -22 -22 -39 -31 -50 -27 -14 5 -14 3 2 -12 21
-21 22 -27 2 -20 -8 4 -15 1 -15 -4 0 -6 -22 -23 -50 -38 -27 -15 -50 -30 -50
-34 0 -3 -9 -16 -20 -28 -12 -12 -16 -22 -10 -22 5 0 10 -5 10 -10 0 -7 -6 -7
-20 0 -20 11 -30 -3 -11 -14 5 -3 7 -15 4 -27 -4 -12 0 -25 8 -30 17 -10 19
-71 2 -65 -7 3 -10 -1 -7 -8 11 -28 41 -12 34 19 -1 6 2 7 6 3 12 -13 14 -57
2 -64 -6 -4 -14 0 -19 7 -7 12 -9 11 -9 -1 0 -9 5 -21 11 -27 11 -11 2 -41
-13 -42 -21 -2 1 -14 29 -16 18 -1 30 2 27 7 -3 4 -1 8 5 8 19 0 21 -18 3 -39
-25 -30 -72 -33 -102 -6 -23 20 -79 34 -205 50 -39 5 -221 32 -307 46 -63 10
-106 6 -109 -9 -1 -4 -4 -18 -6 -32 -7 -35 -7 -87 1 -225 3 -66 2 -134 -3
-152 -5 -17 -12 -85 -15 -150 -6 -113 -22 -202 -35 -204 -79 -9 -306 -71 -314
-86 -6 -9 -18 -12 -35 -9 -16 4 -39 0 -56 -9 -15 -8 -43 -15 -61 -15 -18 0
-46 -7 -61 -15 -16 -8 -46 -15 -66 -15 -28 0 -38 -4 -38 -16 0 -12 -9 -15 -37
-14 -56 3 -65 1 -58 -10 6 -10 0 -11 -60 -14 -16 -1 -43 -7 -58 -14 -16 -7
-34 -12 -42 -12 -8 0 -17 -5 -20 -10 -4 -6 -10 -8 -14 -6 -4 3 -28 -1 -53 -9
-26 -7 -56 -11 -67 -8 -12 3 -27 1 -34 -5 -7 -6 -35 -13 -63 -16 -27 -2 -53
-5 -59 -5 -5 -1 -4 -5 4 -10 8 -5 -4 -8 -33 -7 -29 0 -50 -4 -55 -12 -4 -7
-25 -14 -47 -15 -21 -1 -48 -10 -58 -19 -11 -10 -32 -18 -48 -18 -25 0 -28 -3
-28 -34 0 -19 -5 -38 -11 -42 -6 -3 -9 -15 -6 -25 7 -24 -19 -47 -35 -31 -7 7
-20 12 -30 12 -10 0 -18 5 -18 11 0 5 -5 7 -10 4 -10 -6 -72 31 -78 47 -2 5
-9 5 -15 1 -16 -10 -67 -11 -61 -1 3 4 -4 8 -15 8 -12 0 -21 -7 -21 -15 0 -12
-8 -14 -40 -9 -25 4 -45 2 -54 -6 -8 -6 -34 -14 -57 -16 -24 -3 -55 -12 -71
-20 -16 -8 -33 -12 -37 -9 -5 3 -22 0 -37 -5 -16 -6 -44 -13 -64 -15 -38 -3
-243 -49 -296 -65 -17 -6 -44 -10 -61 -10 -39 0 -63 -9 -63 -23 0 -6 9 -30 20
-53 19 -39 24 -42 71 -48 27 -4 60 -11 72 -15 12 -5 41 -15 64 -21 23 -7 40
-16 38 -21 -3 -4 1 -10 7 -13 7 -3 0 -3 -17 0 -16 4 -40 6 -52 6 -13 -1 -23 3
-23 9 0 5 -5 7 -12 3 -6 -4 -8 -3 -4 4 11 18 -9 22 -38 7 -23 -12 -28 -12 -33
0 -3 8 -9 15 -15 15 -5 0 -6 -5 -2 -11 4 -8 -3 -9 -23 -5 -38 9 -52 -17 -27
-46 10 -10 14 -21 11 -24 -6 -6 59 -134 73 -144 4 -3 11 -16 15 -28 4 -13 20
-44 37 -68 16 -24 27 -48 24 -53 -3 -5 1 -15 10 -22 8 -7 25 -31 36 -53 11
-23 24 -43 27 -46 4 -3 20 -34 35 -70 16 -36 34 -72 41 -80 7 -8 16 -26 20
-40 4 -14 19 -42 32 -63 13 -20 21 -37 18 -37 -3 0 3 -10 15 -22 11 -12 20
-27 20 -34 0 -13 56 -122 71 -138 5 -6 9 -18 9 -27 0 -10 3 -19 8 -21 10 -4
47 -81 45 -95 0 -7 3 -13 7 -13 11 0 110 -202 110 -223 0 -9 4 -17 9 -17 9 0
61 -109 61 -128 0 -6 3 -12 8 -14 8 -3 52 -89 52 -101 0 -11 94 -149 116 -169
39 -36 82 -68 93 -68 7 0 21 -9 32 -19 26 -24 51 -30 177 -37 83 -6 113 -3
160 11 74 23 86 32 303 212 101 83 306 251 454 374 149 122 349 288 445 368
96 80 196 162 222 182 26 19 64 51 85 70 21 19 54 47 73 63 19 16 75 65 123
110 49 44 100 88 113 96 13 8 38 43 56 78 17 35 39 69 49 75 15 9 17 19 12 49
-4 25 -2 38 6 38 14 0 15 94 2 119 -6 10 -6 33 -2 52 6 26 4 38 -7 49 -13 12
-13 14 4 20 18 7 17 8 -3 14 -13 4 -23 11 -23 16 0 10 115 6 142 -5 20 -8 40
-70 42 -133 1 -28 8 -48 18 -56 9 -6 18 -23 20 -36 2 -18 12 -26 38 -33 44
-11 100 -82 100 -127 0 -16 -4 -30 -10 -30 -5 0 -10 -5 -10 -11 0 -5 4 -8 9
-4 14 8 8 -148 -6 -160 -17 -15 -40 -495 -23 -505 12 -8 97 11 135 29 91 45
181 74 225 73 24 -1 62 13 125 46 17 9 59 19 95 23 36 3 75 10 88 14 17 6 22
3 22 -9 0 -11 8 -15 25 -14 16 2 24 7 21 15 -3 7 1 13 9 13 8 0 15 5 15 10 0
6 14 10 30 10 17 0 30 -4 30 -10 0 -17 38 -11 49 7 8 14 12 15 25 4 14 -12 16
-12 10 3 -9 24 17 20 41 -7 19 -20 37 -48 86 -135 23 -40 24 -46 3 -38 -10 4
-22 -1 -31 -11 -8 -10 -12 -12 -8 -5 5 9 0 11 -17 7 -13 -3 -40 1 -60 10 -21
8 -53 15 -72 15 -22 0 -38 6 -44 17 -7 12 -25 17 -68 18 -33 0 -80 9 -106 20
-26 10 -50 16 -54 12 -16 -16 -21 -494 -9 -807 3 -88 1 -132 -8 -149 -6 -13
-16 -23 -20 -22 -4 1 -15 -5 -23 -14 -9 -8 -19 -13 -23 -10 -4 2 -21 -9 -36
-25 -16 -17 -35 -30 -42 -30 -7 0 -15 -11 -19 -25 -3 -14 -18 -34 -32 -45 -24
-20 -52 -98 -52 -145 0 -11 15 -49 33 -84 29 -58 38 -68 96 -98 36 -19 72 -42
80 -52 27 -31 173 -127 262 -172 96 -48 236 -100 336 -124 37 -10 93 -25 123
-35 55 -17 80 -28 215 -90 78 -36 201 -80 222 -80 8 0 40 -12 71 -26 31 -14
71 -32 87 -39 17 -8 57 -24 90 -37 33 -12 69 -28 80 -35 25 -16 38 -17 30 0
-4 6 0 4 8 -6 14 -16 15 -15 19 13 3 17 1 33 -4 36 -5 3 -6 27 -4 54 6 65 -31
126 -86 141 -21 5 -38 14 -38 19 0 6 -4 10 -9 10 -6 0 -22 11 -37 25 -14 13
-34 23 -43 22 -22 -3 -102 88 -95 108 3 8 -9 33 -29 57 -37 46 -84 141 -111
225 -10 29 -22 53 -27 53 -5 0 -8 3 -7 8 4 12 -25 77 -39 85 -7 4 -13 23 -13
41 0 19 -11 64 -25 101 -19 48 -24 77 -19 102 5 28 3 37 -14 49 -11 8 -30 40
-42 72 -12 31 -28 71 -35 87 -8 17 -27 71 -44 122 -17 54 -46 116 -71 152 -22
34 -54 89 -70 122 -23 50 -27 65 -18 84 9 20 13 22 30 12 11 -7 31 -34 45 -62
14 -27 48 -82 74 -121 27 -39 49 -76 49 -81 0 -6 8 -21 18 -34 11 -13 22 -36
26 -52 3 -15 11 -27 16 -27 5 0 7 -6 4 -14 -3 -8 3 -19 14 -25 30 -16 85 -103
71 -112 -8 -4 -4 -9 10 -14 11 -3 21 -10 21 -15 0 -4 13 -22 29 -39 24 -25 35
-30 55 -25 15 3 30 12 34 19 9 15 57 40 95 49 39 9 154 63 162 75 3 6 15 11
25 11 11 0 43 10 72 23 28 12 104 45 167 72 l115 51 73 108 c40 59 73 112 73
117 0 5 5 9 11 9 6 0 8 -7 5 -17 -4 -10 -4 -14 -1 -11 4 4 36 -9 71 -29 l64
-35 29 21 c16 12 43 21 61 21 17 0 29 4 26 9 -3 5 14 14 39 21 25 7 50 18 56
26 6 7 16 11 24 8 7 -3 16 -1 20 5 3 6 15 11 26 11 10 0 19 4 19 9 0 5 17 15
38 22 20 6 53 20 72 30 19 11 45 19 58 19 13 0 20 4 17 10 -3 6 -3 10 2 11 39
3 173 40 226 62 20 9 27 19 27 39 0 15 -6 31 -14 35 -18 11 -35 46 -32 66 1
10 5 16 8 15 9 -4 48 34 48 47 0 24 -26 65 -40 63 -8 -2 -16 -14 -18 -28 -7
-55 -23 -90 -43 -90 -27 0 -25 40 6 97 18 35 21 49 13 54 -7 5 -9 11 -6 15 11
10 -31 64 -48 64 -8 0 -13 4 -10 9 3 5 -9 19 -27 31 -18 12 -46 42 -62 66 -17
24 -33 44 -36 44 -4 0 -18 12 -33 27 -26 25 -27 26 -41 7 -13 -16 -16 -17 -25
-4 -6 8 -9 26 -6 39 5 29 3 31 -99 136 -144 149 -186 196 -195 219 -5 13 -11
62 -13 109 -3 47 -8 91 -12 97 -3 5 -23 10 -44 10 -24 0 -49 8 -67 22 -38 29
-44 38 -44 70 0 15 -7 33 -15 42 -9 8 -16 31 -17 51 -1 19 -5 35 -9 35 -4 0
-10 11 -13 25 -4 15 -16 27 -32 31 -28 7 -45 -3 -25 -15 7 -5 15 -27 18 -51 4
-25 15 -51 30 -66 25 -25 27 -49 3 -49 -8 0 -23 24 -33 55 -11 30 -30 69 -42
85 -20 27 -27 30 -65 27 -23 -3 -45 0 -49 5 -16 25 -45 31 -69 15 -25 -16
-102 -25 -102 -11 0 11 68 32 80 24 5 -3 7 0 4 9 -3 9 3 17 18 21 13 4 30 13
38 20 8 7 114 63 235 124 256 130 324 167 346 187 8 8 22 14 29 14 7 0 28 11
46 25 18 14 37 25 42 25 14 0 146 72 157 85 6 7 23 16 39 19 16 4 41 16 54 27
14 10 28 19 32 19 5 0 39 17 77 39 37 21 100 55 138 76 39 20 153 83 255 140
102 57 345 192 540 300 195 109 373 208 395 220 158 85 201 110 208 121 4 7
20 15 36 19 16 3 35 13 42 21 7 9 38 28 69 44 49 25 59 35 75 75 13 36 15 49
5 55 -6 4 -13 20 -14 36 -2 34 -35 104 -49 104 -5 0 -4 7 3 15 7 8 10 20 7 27
-3 7 -13 30 -22 51 -9 22 -11 36 -6 32 13 -7 4 20 -17 52 -8 13 -12 29 -9 37
3 8 -2 30 -12 50 -10 19 -18 48 -18 62 0 15 -8 33 -18 40 -10 7 -19 26 -20 41
-1 15 -6 39 -12 53 -6 14 -13 41 -17 61 -4 21 -16 49 -27 63 -13 17 -19 35
-15 49 3 12 -6 54 -20 92 -14 39 -30 86 -35 105 -6 19 -14 44 -19 55 -20 47
-44 133 -46 169 -1 21 -8 42 -15 46 -17 11 16 44 36 36 14 -5 20 5 16 27 -1 4
11 10 26 13 34 7 80 45 85 70 3 16 11 19 59 16 56 -4 118 14 169 48 14 9 59
27 100 40 41 13 82 29 91 36 8 8 31 17 50 20 19 4 49 15 68 25 18 10 39 15 47
12 8 -3 14 0 14 6 0 6 6 11 14 11 7 0 19 7 26 15 7 9 19 14 26 11 7 -3 14 1
17 7 3 7 33 21 68 31 35 11 69 24 76 29 7 5 16 6 21 3 5 -3 25 3 45 14 20 11
62 29 94 40 47 16 63 18 90 9 18 -6 31 -15 27 -20 -3 -6 -1 -16 6 -24 9 -11 6
-16 -12 -26 -38 -20 -84 -77 -97 -120 -8 -27 -20 -43 -37 -49 -13 -5 -27 -18
-30 -27 -3 -10 -9 -25 -13 -33 -4 -8 -14 -40 -21 -70 -7 -30 -17 -67 -22 -81
-11 -30 -19 -98 -18 -147 1 -23 -3 -31 -11 -27 -8 5 -7 1 1 -15 8 -15 8 -20 1
-16 -14 9 -14 0 2 -24 10 -17 9 -22 -3 -30 -12 -8 -12 -13 3 -44 9 -20 12 -36
7 -36 -17 0 -9 -111 12 -158 10 -24 16 -48 12 -53 -3 -5 0 -9 5 -9 6 0 10 -3
9 -7 -4 -11 31 -121 48 -154 7 -14 10 -29 6 -33 -4 -4 2 -14 12 -22 11 -7 17
-16 14 -19 -3 -3 6 -18 21 -34 14 -15 35 -45 46 -67 36 -69 59 -87 122 -96
181 -26 232 -20 253 33 18 41 134 158 207 206 65 43 153 85 213 100 33 8 35
12 35 48 0 22 3 45 8 52 4 6 3 13 -2 15 -5 1 -11 10 -13 18 -2 8 -5 17 -8 20
-10 10 -40 72 -40 83 0 7 -13 39 -29 72 -16 33 -39 84 -52 113 -12 28 -26 52
-30 52 -3 0 -9 8 -13 18 -3 9 -10 24 -15 32 -5 8 -14 33 -20 56 -11 42 -40 84
-58 84 -6 0 -16 7 -23 15 -10 12 -10 19 -2 27 17 17 15 25 -8 31 -11 3 -23 13
-26 24 -3 10 -10 26 -15 35 -12 24 -11 28 6 28 12 0 12 5 -2 33 -31 60 -33 67
-33 85 0 9 -20 39 -43 65 -34 36 -51 47 -74 47 -42 0 -52 17 -46 73 4 33 12
52 27 62 11 8 17 15 12 15 -5 0 -3 6 3 14 8 10 9 16 1 21 -6 4 -9 3 -8 -2 2
-4 -2 -9 -7 -10 -6 -2 -10 7 -10 19 0 16 -8 22 -28 25 -21 3 -27 0 -27 -16 0
-26 -53 -38 -86 -20 -13 7 -24 15 -24 19 0 15 38 47 89 73 54 28 70 25 71 -9
0 -7 11 -19 25 -28 14 -9 25 -21 25 -27 0 -5 6 -16 13 -23 20 -22 36 18 26 64
-9 38 -7 79 9 202 6 49 5 74 -4 90 -7 13 -10 33 -8 45 5 17 0 22 -28 28 -86
17 -198 69 -198 92 0 7 -7 13 -15 13 -8 0 -15 5 -15 12 0 6 -3 9 -6 5 -3 -3 2
-21 11 -41 9 -19 13 -40 9 -47 -4 -7 -3 -9 4 -5 6 3 13 2 17 -4 3 -6 -4 -14
-17 -19 -25 -9 -22 -16 -51 100 -8 31 -22 67 -31 82 -10 14 -19 36 -20 49 -2
12 -7 31 -11 41 -4 9 -5 24 -2 31 4 9 -7 29 -24 47 -27 29 -34 42 -30 63 1 4
-6 20 -15 34 -15 22 -15 24 -1 19 11 -4 14 -2 10 9 -3 7 -10 14 -16 14 -18 0
-46 31 -40 46 3 8 0 14 -7 14 -7 0 -9 8 -5 19 3 12 0 21 -10 25 -8 3 -20 17
-25 31 -5 14 -14 25 -20 25 -6 0 -8 5 -4 11 4 7 -8 3 -25 -7 -24 -14 -45 -44
-80 -114 -26 -52 -86 -163 -134 -246 -48 -84 -87 -157 -87 -162 0 -9 -23 -21
-50 -27 -34 -8 -90 -30 -90 -35 0 -4 -15 -13 -32 -20 -18 -7 -53 -20 -78 -30
-25 -10 -62 -21 -82 -24 -37 -7 -38 -6 -38 23 0 16 4 31 10 33 5 2 14 23 19
48 5 25 18 88 29 140 26 124 31 146 42 200 5 25 12 56 16 70 5 14 9 84 11 156
4 115 2 132 -12 138 -24 9 -36 -1 -104 -84 -33 -41 -69 -84 -79 -95 -9 -11
-28 -36 -42 -55 -13 -19 -35 -46 -48 -60 -12 -14 -30 -39 -38 -57 -9 -18 -24
-35 -35 -38 -10 -4 -19 -12 -19 -18 0 -7 -15 -29 -33 -49 -17 -20 -50 -60 -72
-88 -22 -28 -48 -60 -58 -71 -10 -11 -33 -48 -51 -82 -94 -176 -118 -217 -127
-217 -5 0 -9 -9 -9 -19 0 -37 -52 -6 -85 49 -16 28 -41 63 -56 79 -14 16 -29
36 -32 45 -4 9 -13 16 -21 16 -8 0 -17 13 -21 28 -3 15 -24 47 -45 70 -22 23
-40 48 -40 55 0 13 -57 77 -91 103 -8 6 -23 22 -33 37 -11 14 -31 29 -45 32
-14 4 -55 28 -91 54 -36 26 -77 53 -93 61 -35 17 -44 52 -23 85 12 18 14 38
10 83 -6 58 -7 59 -48 73 -35 12 -41 18 -44 46 -3 29 7 44 94 135 53 57 103
107 110 111 8 4 14 16 14 25 0 9 9 23 19 29 11 7 25 28 32 48 7 19 17 35 21
35 4 0 8 5 8 11 0 7 11 22 24 34 13 12 23 31 23 41 -1 13 4 18 15 16 12 -2 15
3 11 18 -3 11 0 20 6 20 6 0 16 11 23 25 6 13 14 22 18 20 5 -3 13 10 19 28
10 26 14 29 22 17 7 -11 8 -7 3 13 -5 22 -3 29 12 33 11 3 29 23 42 45 13 22
27 37 32 34 6 -4 10 1 10 9 0 23 59 106 76 106 8 0 14 9 14 20 0 12 12 32 26
45 15 14 23 25 18 25 -5 0 5 9 22 19 17 10 38 34 47 52 8 19 26 45 39 58 13
14 30 35 38 47 8 12 58 81 110 154 52 72 102 141 110 153 8 13 45 65 81 117
82 118 105 157 113 194 7 28 7 28 -31 22 -33 -6 -54 -9 -104 -15 -5 0 -7 -5
-4 -11 4 -6 -5 -10 -20 -10 -14 0 -50 -9 -80 -19 -29 -10 -56 -17 -59 -13 -3
3 -23 -2 -43 -10 -57 -24 -158 -39 -258 -39 -77 0 -219 7 -235 12 -10 3 -67 9
-146 15 l-81 6 -7 -33 c-4 -19 -11 -56 -16 -84 -5 -27 -14 -66 -20 -85 -6 -19
-10 -62 -8 -95 l3 -60 -30 2 c-16 0 -57 4 -90 8 -57 7 -67 4 -200 -49 -104
-42 -143 -62 -150 -79 -9 -19 -17 -22 -61 -19 -61 3 -200 -22 -222 -40 -8 -7
-82 -95 -163 -194 -82 -100 -157 -184 -168 -187 -31 -8 -51 13 -149 150 -103
145 -146 180 -208 170 -31 -5 -36 -3 -46 21 -6 15 -18 43 -26 62 -9 19 -18 69
-20 110 -4 74 -5 75 -53 125 -27 28 -60 66 -73 86 -49 71 -64 63 -160 -81 -31
-47 -65 -96 -76 -110 -12 -15 -20 -40 -20 -63 0 -58 -20 -94 -106 -190 -44
-48 -97 -115 -120 -148 -48 -69 -83 -109 -98 -109 -7 0 -12 35 -14 93 -3 76
-1 96 12 106 9 8 23 37 31 65 8 28 38 82 65 120 28 38 50 77 50 88 0 22 35 94
50 103 5 3 10 13 10 22 0 8 9 26 20 40 11 14 20 38 20 52 0 15 13 45 29 67 16
22 33 53 37 69 12 51 55 150 69 158 8 4 17 22 20 40 4 17 10 34 14 37 20 17
71 92 71 106 0 9 9 32 21 51 18 29 21 51 23 162 1 152 2 151 -123 227 -42 26
-99 62 -127 80 -55 37 -57 38 -94 23z m-726 -835 c20 -8 11 -24 -15 -24 -19 0
-25 11 -12 23 8 8 8 8 27 1z m269 -11 c-7 -2 -19 -2 -25 0 -7 3 -2 5 12 5 14
0 19 -2 13 -5z m2841 -39 c9 -3 16 -10 16 -14 0 -11 -61 -56 -90 -65 -22 -7
-23 -6 -8 9 9 9 21 16 27 16 6 0 11 11 11 24 0 13 6 27 13 29 6 3 13 6 14 6 1
1 8 -2 17 -5z m-5849 -14 c3 -5 1 -10 -4 -10 -6 0 -11 5 -11 10 0 6 2 10 4 10
3 0 8 -4 11 -10z m5635 -30 c-19 -13 -30 -13 -30 0 0 6 10 10 23 10 18 0 19
-2 7 -10z m-2633 -71 c6 -6 9 -18 6 -25 -3 -9 0 -12 9 -9 16 6 45 -21 34 -32
-4 -4 -15 -2 -24 5 -9 7 -32 22 -49 33 -18 12 -30 25 -27 30 7 13 38 11 51 -2z
m192 -218 c-11 -17 -14 -17 -31 -2 -24 20 -23 21 12 21 27 0 29 -2 19 -19z
m-599 -106 c0 -2 -9 -9 -20 -15 -16 -9 -20 -8 -20 5 0 8 9 15 20 15 11 0 20
-2 20 -5z m-512 -35 c34 -21 79 -86 74 -108 -7 -29 30 -81 69 -96 22 -9 45
-14 50 -11 5 4 9 1 9 -4 0 -6 6 -11 13 -11 21 0 67 -56 55 -68 -15 -15 -5 -64
17 -76 10 -6 25 -17 33 -24 11 -10 11 -13 -2 -18 -46 -18 17 -81 67 -69 15 4
28 1 36 -9 8 -9 24 -16 37 -16 13 0 24 -5 24 -10 0 -6 11 -15 25 -20 14 -5 25
-16 25 -24 0 -8 9 -18 21 -21 29 -10 189 -173 189 -194 0 -5 9 -13 20 -16 11
-3 20 -10 20 -15 0 -5 16 -14 35 -21 35 -13 48 -39 20 -39 -8 0 -15 5 -15 11
0 5 -4 8 -8 5 -12 -7 -84 13 -97 26 -7 8 -6 9 3 4 6 -4 12 -2 12 3 0 6 -15 11
-34 11 -19 0 -43 3 -53 6 -15 5 -16 4 -3 -5 13 -10 13 -12 0 -21 -13 -8 -13
-10 -1 -10 10 0 11 -3 5 -9 -10 -10 -124 -27 -124 -18 0 17 14 37 26 37 8 0
14 7 14 15 0 8 7 15 15 15 22 0 18 18 -5 24 -11 3 -30 9 -41 12 -12 4 -19 2
-16 -3 11 -17 -23 -53 -51 -54 -15 0 -21 -3 -14 -6 6 -2 10 -9 6 -14 -3 -5 0
-9 5 -9 18 0 12 -26 -13 -55 -15 -18 -30 -26 -40 -22 -19 8 -21 48 -3 66 10
11 6 12 -23 6 -19 -4 -36 -9 -38 -10 -9 -8 12 -77 24 -82 8 -3 14 -14 14 -24
0 -10 4 -19 8 -19 5 0 8 -22 8 -49 -1 -41 -4 -49 -18 -48 -10 1 -18 5 -18 9 0
4 -25 8 -56 8 -53 0 -55 1 -49 23 4 12 3 17 -2 10 -4 -6 -15 -13 -23 -15 -8
-2 -22 -13 -32 -24 -10 -12 -29 -25 -43 -28 -21 -5 -24 -11 -19 -30 6 -27 -18
-47 -52 -42 -15 2 -19 11 -20 40 -1 33 3 39 26 47 16 6 32 22 39 42 20 51 90
75 117 40 12 -16 13 -16 14 -1 0 9 -5 18 -12 20 -14 5 -21 118 -7 118 6 0 7 5
4 11 -4 6 -13 8 -21 5 -9 -3 -16 3 -20 18 -3 12 -12 23 -19 23 -8 0 -12 -4 -9
-9 3 -4 0 -9 -5 -9 -30 -4 -95 -27 -166 -59 -33 -15 -87 -39 -120 -53 -35 -15
-65 -35 -72 -49 -27 -51 -88 -113 -109 -110 -18 3 -96 -17 -242 -60 -38 -11
-47 -10 -77 6 -20 11 -35 27 -35 37 0 15 86 91 157 139 31 21 227 172 233 180
3 3 39 31 80 62 103 76 136 106 126 115 -8 8 -13 9 -41 12 -25 2 -17 21 9 21
44 0 37 17 -9 22 -65 8 -235 94 -219 111 4 4 -1 9 -10 13 -9 3 -13 10 -10 15
3 5 -2 9 -10 9 -15 0 -21 12 -17 33 1 4 -5 23 -13 41 -8 19 -11 38 -6 42 4 5
13 26 20 46 6 21 22 46 36 57 13 10 24 23 24 28 0 5 13 20 30 33 16 14 29 31
30 38 0 6 4 12 9 12 5 0 18 16 30 35 27 46 76 75 126 75 22 0 54 -9 73 -20z
m1602 -160 c0 -5 -7 -10 -16 -10 -8 0 -12 5 -9 10 3 6 10 10 16 10 5 0 9 -4 9
-10z m320 -100 c0 -5 -5 -10 -11 -10 -5 0 -7 5 -4 10 3 6 8 10 11 10 2 0 4 -4
4 -10z m-745 -150 c3 -5 1 -10 -4 -10 -6 0 -11 5 -11 10 0 6 2 10 4 10 3 0 8
-4 11 -10z m985 -4 c0 -20 -27 -39 -45 -32 -18 7 -20 32 -2 39 24 10 47 7 47
-7z m-1795 -36 c-3 -5 -12 -7 -20 -3 -21 7 -19 13 6 13 11 0 18 -4 14 -10z
m1900 -330 c-3 -5 -10 -10 -16 -10 -5 0 -9 5 -9 10 0 6 7 10 16 10 8 0 12 -4
9 -10z m-1578 -56 c-3 -3 -12 -4 -19 -1 -8 3 -5 6 6 6 11 1 17 -2 13 -5z
m-187 -24 c0 -5 -5 -10 -11 -10 -5 0 -7 5 -4 10 3 6 8 10 11 10 2 0 4 -4 4
-10z m424 -6 c23 -9 20 -24 -4 -24 -11 0 -20 7 -20 15 0 17 2 18 24 9z m896
-44 c0 -5 -9 -10 -20 -10 -11 0 -20 5 -20 10 0 6 9 10 20 10 11 0 20 -4 20
-10z m-1656 -48 c2 -4 1 -14 -4 -21 -10 -17 -31 -5 -23 14 6 16 19 20 27 7z
m-2909 -23 c-18 -5 -33 -5 -39 1 -7 7 4 10 30 9 39 -1 39 -1 9 -10z m2810 1
c3 -6 -1 -13 -10 -16 -19 -8 -30 0 -20 15 8 14 22 14 30 1z m495 -34 c0 -3 -4
-8 -10 -11 -5 -3 -10 -1 -10 4 0 6 5 11 10 11 6 0 10 -2 10 -4z m-710 -24 c0
-5 -7 -9 -15 -9 -8 0 -12 4 -9 9 3 4 9 8 15 8 5 0 9 -4 9 -8z m190 -2 c0 -5
-5 -10 -11 -10 -7 0 -9 -9 -6 -22 9 -31 -10 -58 -39 -58 -14 0 -22 4 -19 10 3
5 2 17 -3 26 -13 23 -26 0 -26 -48 -1 -38 3 -42 39 -38 25 2 8 -17 -19 -22
-11 -1 -35 -25 -53 -52 -40 -56 -39 -80 7 -128 34 -35 37 -50 15 -68 -21 -18
-103 23 -116 59 -6 16 -8 63 -4 119 6 76 11 94 26 103 11 5 19 20 19 34 0 13
5 36 12 50 11 25 15 26 64 21 43 -4 55 -2 69 14 19 21 45 27 45 10z m1420 -6
c34 -14 52 -15 103 -7 48 8 64 7 75 -3 7 -8 22 -14 33 -14 20 0 26 -15 9 -25
-6 -4 -10 -14 -9 -23 3 -32 -1 -39 -66 -126 -36 -48 -72 -102 -82 -119 -9 -18
-24 -38 -34 -45 -11 -7 -19 -18 -19 -24 0 -5 -22 -35 -50 -65 -27 -30 -50 -58
-50 -63 0 -17 37 -30 190 -64 52 -12 55 -14 52 -42 -2 -16 -7 -33 -11 -39 -5
-5 -11 -23 -15 -40 -4 -16 -20 -73 -36 -125 -59 -193 -92 -306 -101 -348 -5
-24 -15 -58 -24 -75 -20 -45 -44 -112 -61 -176 -8 -30 -21 -69 -30 -87 -12
-24 -13 -44 -7 -80 8 -48 1 -95 -24 -154 -6 -14 -13 -42 -17 -62 -6 -34 -5
-38 14 -38 30 0 24 -22 -21 -74 -42 -48 -74 -59 -83 -28 -7 22 0 142 13 206 5
28 8 75 6 105 -2 31 1 62 7 68 8 10 0 24 -30 53 -22 22 -37 40 -35 40 9 0 -30
55 -49 68 -10 7 -18 17 -18 23 0 9 -81 119 -112 151 -10 10 -18 28 -18 41 0
13 -4 27 -9 32 -20 21 -17 70 7 117 27 52 24 74 -10 87 -19 7 -20 10 -7 15 9
4 22 6 29 4 9 -2 20 20 31 67 48 188 60 237 80 325 11 52 22 104 24 115 2 11
13 58 25 105 12 47 26 104 31 127 14 69 40 157 51 168 10 11 137 42 180 44 15
0 46 -6 68 -15z m235 5 c4 -6 14 -8 22 -5 8 3 11 1 8 -4 -3 -5 -20 -8 -38 -6
-18 3 -36 5 -42 5 -13 2 17 21 32 21 6 0 15 -5 18 -11z m-1141 -34 c-4 -8 -11
-12 -16 -9 -6 4 -5 10 3 15 19 12 19 11 13 -6z m206 -15 c-8 -6 -11 -10 -7
-10 5 0 5 -5 2 -10 -4 -6 -11 -8 -16 -4 -6 4 -3 14 7 25 9 11 20 17 23 14 3
-4 -1 -10 -9 -15z m-41 -49 c9 -6 4 -10 -18 -13 -50 -7 -50 11 -1 21 3 0 11
-3 19 -8z m-274 -41 c-3 -5 -11 -10 -16 -10 -6 0 -7 5 -4 10 3 6 11 10 16 10
6 0 7 -4 4 -10z m-912 -23 c6 -17 -3 -32 -26 -40 -10 -4 -15 -11 -12 -17 3 -5
0 -10 -8 -10 -18 0 -28 55 -13 70 14 14 53 12 59 -3z m977 3 c0 -5 -6 -10 -14
-10 -8 0 -18 5 -21 10 -3 6 3 10 14 10 12 0 21 -4 21 -10z m216 -8 c3 -9 19
-25 36 -35 29 -17 30 -18 14 -36 -10 -11 -13 -22 -8 -25 5 -3 5 -30 1 -62 -4
-31 -5 -62 -2 -70 3 -8 0 -20 -6 -28 -6 -7 -9 -21 -5 -30 4 -12 0 -16 -15 -16
-14 0 -21 6 -21 20 0 14 -5 18 -16 13 -9 -3 -14 -13 -11 -24 3 -11 1 -19 -4
-19 -4 0 -6 -7 -3 -15 4 -8 11 -12 18 -8 6 4 5 0 -2 -9 -8 -9 -19 -15 -27 -12
-7 3 -16 0 -21 -7 -4 -7 -3 -10 3 -6 6 4 16 1 22 -6 8 -10 5 -19 -10 -36 -11
-12 -18 -29 -15 -37 3 -8 0 -14 -8 -14 -8 0 -11 -10 -8 -30 3 -19 0 -30 -7
-30 -7 0 -9 4 -6 10 3 5 -12 12 -34 16 -23 4 -38 10 -35 15 14 24 12 48 -7 54
-11 4 -19 15 -19 28 0 12 -9 36 -20 52 -11 17 -20 40 -20 53 0 13 -4 21 -9 17
-8 -4 -7 32 2 78 1 7 -5 11 -14 9 -20 -3 -34 27 -19 42 8 8 13 7 20 -4 8 -13
11 -13 22 -1 7 8 8 11 2 8 -23 -13 -40 43 -25 81 0 1 10 -2 21 -8 15 -8 18 -7
15 2 -4 9 7 14 35 16 37 2 40 1 40 -23 0 -15 4 -24 10 -20 6 3 15 3 21 -1 8
-5 8 -8 0 -13 -8 -5 -5 -14 8 -30 11 -12 22 -22 25 -21 21 3 38 -20 34 -47 -2
-17 2 -35 9 -42 10 -9 13 -9 14 1 2 29 -3 74 -11 83 -12 16 -19 107 -9 131 5
15 4 24 -3 26 -18 6 1 28 24 28 11 0 22 -8 24 -18z m-3772 -18 c11 -28 6 -39
-9 -20 -8 11 -15 23 -15 28 0 14 18 9 24 -8z m3683 2 c-15 -7 -25 -15 -21 -18
3 -4 -9 -3 -28 1 -18 4 -42 4 -53 0 -28 -11 -45 -11 -45 0 0 16 53 29 115 29
56 0 58 0 32 -12z m-577 -16 c0 -5 -4 -10 -10 -10 -5 0 -10 5 -10 10 0 6 5 10
10 10 6 0 10 -4 10 -10z m-690 -15 c0 -9 -9 -15 -25 -15 -16 0 -25 6 -25 15 0
9 9 15 25 15 16 0 25 -6 25 -15z m1030 -39 c0 -3 -4 -8 -10 -11 -5 -3 -10 -1
-10 4 0 6 5 11 10 11 6 0 10 -2 10 -4z m-950 -54 c0 -10 -6 -26 -12 -34 -17
-22 -135 -108 -148 -108 -18 0 -10 24 20 60 17 19 30 40 30 46 0 19 52 53 83
54 19 0 27 -5 27 -18z m590 -87 c7 -8 9 -15 5 -15 -4 0 -2 -7 5 -15 6 -8 9
-19 5 -24 -3 -6 0 -8 8 -5 17 6 41 -21 34 -40 -3 -7 3 -22 12 -33 22 -24 71
-110 71 -125 0 -6 11 -25 24 -42 13 -17 27 -42 31 -56 4 -14 16 -37 26 -51 10
-14 25 -45 35 -70 10 -24 27 -57 38 -74 12 -16 19 -30 18 -30 -8 0 20 -59 38
-82 10 -13 16 -31 13 -40 -4 -11 -2 -14 5 -9 7 4 13 1 14 -6 0 -7 2 -18 2 -23
1 -6 13 -24 28 -39 14 -16 28 -41 31 -55 3 -15 22 -51 41 -80 20 -29 36 -59
36 -67 0 -13 18 -52 30 -64 12 -12 70 -132 70 -145 0 -7 4 -15 8 -17 11 -4 62
-105 62 -123 0 -8 3 -15 8 -15 4 0 6 -20 4 -45 -2 -25 1 -51 6 -58 11 -13 10
-29 -3 -61 -5 -10 -4 -21 2 -25 12 -7 10 -62 -4 -101 -7 -23 -8 -44 -4 -92 1
-12 9 -18 25 -18 14 0 32 -7 40 -16 17 -17 21 -44 7 -44 -5 0 -13 -17 -18 -37
-7 -31 -14 -39 -35 -41 -24 -3 -28 1 -34 35 -11 57 -22 15 -20 -75 1 -41 -2
-76 -6 -78 -4 -3 -8 -15 -8 -27 0 -33 -7 -108 -14 -142 -4 -16 -11 -85 -16
-151 -5 -67 -11 -132 -14 -145 -3 -13 -12 -94 -21 -179 -8 -85 -20 -159 -25
-164 -5 -5 -7 -23 -4 -40 2 -17 2 -25 -2 -18 -3 6 -17 12 -30 12 -13 0 -24 5
-24 12 0 9 -3 9 -12 0 -16 -16 -49 -15 -46 0 3 10 -76 58 -172 105 -8 4 -30
17 -49 30 -26 18 -37 21 -45 12 -8 -8 -7 -13 2 -16 6 -3 12 -9 12 -14 0 -6 -4
-7 -10 -4 -10 6 -11 5 -15 -33 -2 -19 0 -20 13 -10 13 11 14 10 5 -7 -6 -11
-14 -47 -18 -80 -4 -33 -13 -67 -21 -76 -13 -15 -13 -17 1 -22 8 -4 15 -11 15
-18 0 -6 -7 -9 -15 -5 -9 3 -15 0 -15 -10 0 -8 4 -13 9 -10 13 9 0 -77 -13
-86 -24 -17 -41 -3 -38 32 4 55 12 323 12 403 0 32 -3 37 -22 37 -33 0 -50 14
-42 33 3 9 10 17 15 17 4 0 6 15 4 33 -2 17 -6 61 -10 97 -4 36 -13 76 -20 90
-8 14 -16 37 -19 51 -7 34 -106 147 -128 148 -25 1 -64 41 -49 50 6 4 9 15 5
24 -5 14 -10 15 -27 5 -20 -10 -21 -10 -8 6 8 9 33 21 58 27 24 6 46 15 49 20
3 5 13 9 22 9 10 0 35 9 56 20 22 11 55 21 75 24 20 2 55 11 79 20 23 8 42 13
42 11 0 -2 19 3 43 11 23 9 51 17 62 20 57 11 73 26 101 91 39 92 34 202 -11
247 -17 17 -24 33 -20 44 3 12 -3 26 -15 37 -13 12 -20 29 -18 49 1 18 -5 45
-14 61 -50 95 -59 115 -52 115 4 0 0 8 -9 18 -9 10 -18 29 -19 43 -4 30 -30
42 -64 29 -14 -6 -51 -10 -82 -10 -38 0 -70 -7 -95 -20 -29 -16 -42 -18 -57
-10 -11 6 -20 15 -20 20 0 22 -21 8 -46 -30 -15 -22 -30 -37 -35 -34 -14 9
-10 -1 10 -24 10 -12 43 -33 74 -47 37 -16 61 -34 71 -52 7 -16 23 -37 35 -47
22 -20 28 -46 11 -46 -5 0 -10 -10 -10 -22 0 -19 2 -20 10 -8 7 12 10 12 10 1
0 -9 8 -11 25 -7 20 5 33 -1 67 -34 23 -22 48 -40 54 -40 7 0 20 -10 28 -22
12 -17 13 -25 4 -37 -10 -13 -10 -14 2 -3 40 35 58 -1 63 -128 4 -89 4 -90
-19 -90 -13 0 -24 -4 -24 -9 0 -5 -10 -11 -22 -14 -13 -3 -33 -9 -45 -12 -13
-4 -23 -3 -23 2 0 5 21 16 48 24 43 14 47 18 44 45 -4 37 -11 43 -23 21 -6 -9
-18 -17 -27 -17 -15 0 -15 -2 -2 -10 10 -7 11 -10 3 -11 -7 -1 -17 -3 -23 -4
-5 -1 -26 -3 -46 -4 -28 -1 -35 -4 -30 -16 7 -19 -3 -19 -28 0 -10 8 -22 12
-26 10 -4 -3 -13 1 -19 9 -10 11 -4 13 34 11 25 -2 45 -1 45 2 0 3 -16 23 -35
44 -19 22 -35 48 -35 58 0 32 11 51 29 51 10 0 23 11 29 25 9 19 17 23 42 20
23 -3 30 0 30 14 0 23 -10 32 -24 23 -6 -4 -20 -7 -31 -8 -11 0 -31 -4 -45 -8
-14 -4 -20 -4 -15 1 19 15 10 48 -20 76 l-30 28 -22 -25 c-22 -27 -53 -35 -53
-15 0 6 7 9 15 5 12 -4 13 -2 6 13 -6 10 -7 22 -3 26 4 5 1 5 -6 1 -7 -4 -9
-12 -6 -18 5 -7 2 -8 -5 -3 -8 4 -18 -1 -26 -13 -19 -26 -77 -50 -83 -34 -2 7
-8 10 -13 6 -5 -3 -9 2 -9 10 0 9 -5 16 -11 16 -8 0 -8 5 1 15 10 12 7 16 -16
25 -15 6 -32 9 -38 7 -6 -3 -15 -5 -19 -5 -4 -1 -16 -11 -26 -23 -12 -16 -23
-20 -39 -15 -12 4 -22 11 -22 16 0 5 -7 15 -15 24 -14 13 -13 15 5 13 11 -1
20 -5 20 -9 0 -17 30 -7 44 14 21 30 20 38 -4 38 -23 0 -27 18 -5 26 9 4 14
11 13 18 -4 23 14 56 31 56 13 0 18 7 16 24 -2 18 1 23 11 19 9 -3 14 1 14 12
0 9 -5 13 -10 10 -6 -4 -25 7 -42 24 -27 26 -29 33 -18 46 11 14 10 17 -9 22
-12 3 -20 11 -18 17 5 15 33 14 30 -1 -2 -7 6 -13 17 -13 12 0 20 7 20 17 0 9
-3 13 -7 10 -3 -4 -17 0 -31 9 -19 12 -26 13 -32 4 -4 -7 -13 -9 -20 -5 -9 6
-8 10 4 17 9 5 14 14 11 19 -4 5 -11 7 -16 4 -5 -4 -9 1 -9 9 0 9 -7 16 -17
16 -15 0 -15 2 1 19 10 11 24 17 31 15 7 -3 19 2 28 10 9 9 21 16 28 16 8 0 8
4 -1 15 -7 9 -19 14 -25 11 -19 -7 -36 9 -29 28 7 17 12 18 75 4 8 -2 17 -7
21 -13 4 -5 10 -6 14 -2 9 8 1 17 -18 21 -32 7 -48 20 -48 38 0 14 -5 18 -15
14 -21 -8 -19 14 3 30 11 9 13 13 4 14 -7 0 -10 5 -7 10 4 7 13 6 26 -1 11 -6
39 -10 62 -9 23 1 49 1 58 1 15 -1 49 -59 49 -83 0 -7 10 -22 21 -35 20 -20
20 -23 5 -29 -9 -3 -23 -1 -31 6 -10 8 -15 9 -15 2 0 -6 5 -14 10 -17 13 -8
13 -35 0 -35 -5 0 -16 15 -23 33 -8 17 -26 41 -40 51 -14 11 -24 23 -21 28 3
4 0 8 -6 8 -8 0 -9 -7 -5 -17 4 -10 7 -29 6 -42 -1 -28 15 -52 33 -45 7 3 21
-5 32 -17 17 -21 18 -22 1 -16 -10 4 -16 3 -13 -2 3 -5 17 -11 32 -14 20 -3
27 0 34 19 11 28 17 29 42 7 17 -15 18 -15 18 1 0 9 -8 28 -17 43 -10 14 -19
35 -20 47 -2 12 -17 48 -33 81 -18 36 -26 63 -21 68 12 12 3 38 -20 57 -10 8
-20 27 -23 42 -5 31 -25 70 -40 81 -8 5 -6 10 4 17 10 7 11 10 2 10 -15 0 -9
84 7 104 6 7 8 16 4 19 -7 8 8 61 42 152 12 33 26 85 30 115 4 30 14 66 23 80
26 38 52 100 52 120 0 11 9 20 23 23 12 2 25 5 28 6 4 0 12 -6 19 -14z m-172
-58 c6 -28 -32 -92 -56 -95 -12 -2 -22 1 -22 7 0 5 -7 17 -16 26 -12 12 -19
13 -29 5 -10 -8 -19 -8 -35 0 -25 13 -40 6 -40 -21 0 -18 -4 -20 -40 -23 -8
-1 -14 -9 -14 -19 1 -9 -2 -17 -7 -17 -5 0 -9 9 -9 19 0 20 -18 31 -50 31 -10
0 -20 6 -23 14 -6 14 49 36 94 37 13 0 65 15 114 33 91 33 127 34 133 3z
m-371 -84 c-8 -9 -20 -12 -27 -8 -8 5 -6 11 7 20 23 17 39 7 20 -12z m3652 -2
c5 -9 7 -28 4 -42 -2 -14 7 -68 21 -120 14 -52 29 -122 32 -157 7 -62 7 -62
-29 -97 -24 -23 -41 -33 -52 -28 -10 3 -20 2 -24 -3 -3 -6 -22 -15 -41 -21
-121 -39 -482 -169 -512 -184 -28 -14 -58 -10 -64 9 -3 9 -27 62 -54 117 -26
55 -56 119 -66 143 -9 23 -20 42 -24 42 -4 0 -17 -21 -28 -47 -82 -192 -156
-341 -178 -360 -14 -13 -35 -23 -47 -23 -40 0 -300 -89 -323 -111 -26 -24 -67
-22 -72 4 -2 9 6 37 17 60 12 24 21 60 21 81 0 20 9 54 20 76 24 47 25 66 4
74 -13 5 -14 9 -4 21 6 7 17 12 24 9 14 -5 46 61 46 96 0 10 5 22 10 25 6 3
10 19 10 36 0 16 4 29 10 29 5 0 18 28 29 63 18 61 18 62 0 65 -13 2 -19 12
-19 28 0 13 3 25 8 25 33 7 91 5 112 -3 14 -5 32 -11 40 -13 8 -2 67 -17 132
-34 128 -33 135 -33 213 24 17 11 46 29 65 38 19 10 67 37 105 62 39 25 86 53
105 61 19 9 43 23 52 31 24 21 48 9 86 -43 19 -25 39 -47 46 -50 16 -6 170 67
240 112 49 33 70 34 85 5z m-4578 4 c0 -5 -9 -11 -21 -13 -20 -3 -27 8 -13 22
10 9 34 3 34 -9z m996 -41 c-3 -3 -12 -4 -19 -1 -8 3 -5 6 6 6 11 1 17 -2 13
-5z m-451 -15 c9 -16 -8 -29 -50 -39 -32 -7 -36 -6 -36 11 0 30 71 52 86 28z
m642 -17 c9 -9 26 -16 37 -13 17 3 17 1 6 -12 -7 -9 -15 -49 -17 -89 -3 -40
-6 -84 -8 -98 -3 -14 -5 -28 -5 -31 -1 -4 -15 -20 -32 -37 -24 -24 -27 -31
-15 -35 29 -12 19 -62 -17 -90 -19 -14 -38 -22 -44 -19 -19 13 -22 55 -5 86 9
17 15 37 13 44 -1 8 2 19 7 25 5 7 10 32 11 56 0 24 5 60 10 80 5 20 13 62 16
94 8 61 15 67 43 39z m-473 -41 c-3 -6 -11 -8 -17 -5 -6 4 -5 9 3 15 16 10 23
4 14 -10z m1420 -55 c-7 -33 -29 -56 -53 -56 -10 0 -12 7 -8 23 3 12 6 27 6
34 0 19 29 43 46 36 11 -4 13 -14 9 -37z m-1480 14 c-3 -5 -10 -10 -16 -10 -5
0 -9 5 -9 10 0 6 7 10 16 10 8 0 12 -4 9 -10z m-2505 -64 c0 -11 -19 -15 -25
-6 -3 5 1 10 9 10 9 0 16 -2 16 -4z m3940 -26 c0 -5 -7 -10 -15 -10 -8 0 -15
5 -15 10 0 6 7 10 15 10 8 0 15 -4 15 -10z m320 -20 c0 -5 -7 -10 -15 -10 -8
0 -15 5 -15 10 0 6 7 10 15 10 8 0 15 -4 15 -10z m-2938 -43 c-6 -7 -10 -29
-9 -50 1 -41 -16 -68 -34 -50 -12 12 -2 83 12 83 5 0 9 9 9 19 0 11 6 21 13
24 16 5 22 -10 9 -26z m888 3 c0 -5 -4 -10 -9 -10 -5 0 -17 -3 -25 -6 -12 -5
-15 -2 -10 10 7 17 44 22 44 6z m2010 -31 c0 -13 7 -19 21 -19 12 0 19 -5 17
-12 -5 -14 -35 -17 -59 -6 -19 9 -31 66 -15 71 16 6 36 -13 36 -34z m-2965 -8
c7 -13 -32 -34 -46 -26 -7 5 -6 11 2 21 13 16 35 18 44 5z m1210 -1 c3 -5 15
-10 26 -10 23 0 24 -9 3 -25 -15 -11 -16 -15 -2 -42 13 -26 13 -34 2 -56 -14
-26 -23 -30 -80 -42 -22 -4 -35 -1 -44 10 -19 23 3 87 40 119 17 13 30 32 30
40 0 18 16 21 25 6z m6496 -93 c-8 -8 -14 -8 -23 1 -7 7 -9 12 -4 12 4 0 0 10
-8 21 -8 12 -12 28 -9 36 4 10 13 3 30 -22 18 -27 22 -40 14 -48z m-3851 33
c0 -5 -9 -10 -20 -10 -11 0 -20 5 -20 10 0 6 9 10 20 10 11 0 20 -4 20 -10z
m-4946 -26 c26 -10 18 -24 -14 -24 -29 0 -38 9 -23 23 8 9 17 9 37 1z m3980
-10 c3 -8 2 -12 -4 -9 -6 3 -10 10 -10 16 0 14 7 11 14 -7z m-4046 -10 c-3 -3
-35 -12 -69 -20 -35 -8 -75 -19 -89 -24 -14 -5 -65 -14 -115 -20 -86 -10 -162
-21 -232 -36 -26 -5 -33 -3 -33 9 0 8 12 17 28 20 83 18 218 39 292 47 91 9
201 28 209 35 2 3 7 3 9 0 3 -3 3 -8 0 -11z m1209 -75 c3 -64 5 -61 -68 -122
-30 -26 -52 -25 -59 3 -8 32 6 66 45 110 35 38 50 67 46 89 -2 10 2 9 15 -4
12 -11 18 -37 21 -76z m5876 80 c29 -13 26 -45 -4 -54 -27 -9 -39 2 -39 36 0
32 7 35 43 18z m1809 -40 c10 -14 20 -38 22 -53 2 -15 7 -31 12 -34 25 -18 45
-82 26 -82 -15 0 -44 38 -37 49 4 7 -4 11 -20 11 -22 0 -25 3 -20 20 5 16 2
20 -14 20 -26 0 -29 36 -3 43 11 3 7 5 -10 6 -27 1 -39 16 -30 39 7 21 53 9
74 -19z m-6229 12 c4 -1 7 -7 7 -14 0 -14 -67 -37 -110 -37 -31 0 -39 13 -17
27 19 13 81 30 97 27 8 -1 18 -3 23 -3z m-1555 -38 c3 -19 -38 -63 -59 -63
-19 0 -9 59 13 74 28 20 42 16 46 -11z m1396 -14 c-7 -12 -44 -12 -44 0 0 5 6
11 13 14 17 6 38 -3 31 -14z m311 -9 c3 -5 1 -10 -4 -10 -6 0 -11 5 -11 10 0
6 2 10 4 10 3 0 8 -4 11 -10z m-402 -19 c4 -4 7 -21 7 -37 0 -16 -1 -46 -1
-67 l0 -37 -43 2 c-49 1 -70 -8 -62 -28 7 -18 -56 -84 -79 -84 -9 0 -15 9 -15
21 0 16 -5 20 -27 18 -16 -2 -38 3 -50 9 -19 11 -23 10 -23 -1 0 -14 -28 -27
-57 -27 -38 0 7 98 50 113 16 5 45 24 65 43 20 19 44 34 53 34 9 0 19 7 23 15
3 8 12 15 20 15 7 0 27 7 42 15 28 15 79 12 97 -4z m579 -39 c2 -32 4 -37 12
-50 6 -10 3 -13 -9 -10 -11 2 -19 13 -20 27 -1 13 -9 28 -18 32 -9 5 -14 16
-11 24 8 19 43 1 46 -23z m-1942 -92 c0 -4 -8 -11 -17 -14 -19 -8 -38 7 -29
22 7 11 46 4 46 -8z m1444 -65 c3 -9 -1 -18 -9 -21 -21 -9 -19 -24 4 -24 14 0
20 -9 23 -35 2 -19 1 -40 -3 -46 -13 -22 -49 3 -69 46 -24 54 -25 64 -2 81 23
18 49 17 56 -1z m271 5 c3 -5 15 -10 26 -10 12 0 23 -10 30 -27 8 -22 6 -30
-13 -52 -13 -14 -24 -28 -25 -29 -4 -9 -109 -11 -122 -3 -7 5 -15 25 -16 44
-4 51 27 77 102 86 6 0 15 -3 18 -9z m-778 -34 c1 -1 4 -13 8 -29 6 -20 4 -27
-8 -27 -8 0 -28 -15 -45 -34 -32 -37 -66 -53 -77 -36 -3 5 -15 10 -25 10 -36
0 -30 20 22 75 49 51 56 54 88 49 19 -4 36 -7 37 -8z m1795 -51 c0 -5 -5 -11
-11 -13 -6 -2 -11 4 -11 13 0 9 5 15 11 13 6 -2 11 -8 11 -13z m-902 -39 c0
-3 -4 -8 -10 -11 -5 -3 -10 -1 -10 4 0 6 5 11 10 11 6 0 10 -2 10 -4z m-715
-26 c-3 -5 -13 -10 -21 -10 -8 0 -12 5 -9 10 3 6 13 10 21 10 8 0 12 -4 9 -10z
m-470 -19 c0 -14 -14 -25 -50 -36 -18 -6 -18 -8 -4 -18 9 -7 19 -22 23 -34 9
-27 -23 -63 -55 -63 -22 0 -22 0 -2 62 4 12 -3 21 -21 28 -36 13 -33 25 17 53
45 27 92 31 92 8z m104 -6 c4 -21 -23 -45 -51 -45 -24 0 -23 25 3 51 23 23 42
21 48 -6z m158 9 c-3 -3 -12 -4 -19 -1 -8 3 -5 6 6 6 11 1 17 -2 13 -5z m573
-14 c0 -5 -7 -10 -15 -10 -8 0 -15 5 -15 10 0 6 7 10 15 10 8 0 15 -4 15 -10z
m2680 -21 c0 -11 -27 -12 -34 -1 -2 4 4 9 15 9 10 1 19 -2 19 -8z m-2847 -31
c-2 -5 -14 -8 -26 -9 -21 0 -21 -1 -2 -9 31 -13 45 -11 52 8 9 23 23 32 56 32
30 0 47 -24 28 -43 -21 -21 -11 -30 28 -24 22 2 43 1 48 -3 4 -5 23 -10 42
-12 35 -3 43 -16 42 -65 0 -13 3 -23 8 -23 5 0 5 -17 0 -41 -7 -31 -6 -43 6
-55 17 -18 19 -30 5 -39 -17 -10 -11 -25 7 -18 11 4 14 3 9 -5 -10 -16 -46
-15 -47 1 0 6 -7 -3 -15 -21 -11 -26 -19 -32 -32 -27 -9 4 -35 9 -58 10 -22 1
-46 5 -51 8 -16 10 -60 -16 -55 -32 3 -10 0 -11 -9 -5 -8 5 -18 9 -24 9 -30 3
-65 19 -62 29 2 6 9 11 14 11 22 0 26 15 13 45 -7 17 -16 27 -19 21 -4 -5 -27
-11 -51 -12 -44 -2 -100 -25 -100 -41 0 -4 -7 -8 -16 -8 -8 0 -12 -4 -9 -10 3
-6 -5 -10 -19 -10 -15 0 -26 7 -29 18 -4 14 -6 14 -12 -5 -7 -23 -27 -33 -22
-12 5 23 -96 51 -133 37 -13 -5 -26 -5 -29 -2 -3 4 0 9 8 12 9 3 10 6 2 12
-15 9 -3 40 16 40 10 0 13 6 9 16 -3 9 -6 20 -6 26 0 6 -7 8 -15 4 -9 -3 -15
0 -15 10 0 8 -7 17 -15 20 -8 4 -15 11 -15 18 0 6 -9 19 -20 29 -11 9 -20 12
-20 6 0 -6 -7 -8 -16 -5 -14 5 -15 4 -4 -9 11 -13 10 -18 -6 -30 -24 -18 -60
-19 -67 -2 -3 8 7 18 24 26 16 7 27 18 26 24 -1 8 12 12 37 11 22 -1 46 5 54
12 17 17 66 18 84 2 20 -19 50 -15 58 7 13 35 37 48 77 42 20 -4 39 -11 43
-17 9 -14 80 -26 80 -13 0 6 -7 16 -15 23 -8 7 -15 15 -15 19 0 12 110 42 130
36 12 -4 20 -2 20 5 0 7 5 6 14 -2 8 -7 12 -16 9 -20z m1784 17 c0 -8 -4 -12
-9 -9 -4 3 -8 9 -8 15 0 5 4 9 8 9 5 0 9 -7 9 -15z m-2769 -12 c2 -8 -5 -13
-17 -13 -21 0 -35 13 -24 24 10 10 36 3 41 -11z m-368 3 c0 -3 -4 -8 -10 -11
-5 -3 -10 -1 -10 4 0 6 5 11 10 11 6 0 10 -2 10 -4z m1695 -13 c4 -12 -1 -24
-16 -36 -26 -21 -48 -19 -63 6 -9 15 -7 21 8 33 27 19 62 18 71 -3z m-865 -8
c0 -11 -12 -15 -49 -15 -47 0 -68 9 -54 24 3 3 28 6 55 6 36 0 48 -4 48 -15z
m760 -15 c0 -5 -7 -10 -16 -10 -8 0 -12 5 -9 10 3 6 10 10 16 10 5 0 9 -4 9
-10z m209 -4 c10 -12 8 -13 -8 -9 -12 3 -21 9 -21 14 0 14 16 11 29 -5z
m-1048 -43 c12 -15 12 -16 -3 -10 -13 4 -18 1 -19 -11 -1 -16 -2 -16 -6 1 -3
11 -14 17 -31 17 -21 0 -24 2 -12 10 23 15 56 12 71 -7z m919 -2 c0 -5 -9 -7
-20 -4 -11 3 -20 7 -20 9 0 2 9 4 20 4 11 0 20 -4 20 -9z m-4345 -11 c3 -5 -3
-10 -15 -10 -12 0 -18 5 -15 10 3 6 10 10 15 10 5 0 12 -4 15 -10z m3381 -42
c8 -27 -1 -34 -44 -36 -46 -3 -66 23 -36 45 25 18 73 13 80 -9z m1094 8 c0
-11 -19 -15 -25 -6 -3 5 1 10 9 10 9 0 16 -2 16 -4z m-1590 -45 c0 -13 -28
-22 -35 -11 -3 4 1 11 7 13 20 8 28 8 28 -2z m659 -56 c3 -17 1 -18 -13 -6 -9
7 -23 11 -31 7 -8 -3 -15 -2 -15 3 0 28 53 25 59 -4z m-289 -6 c0 -5 -7 -9
-15 -9 -8 0 -15 7 -15 15 0 9 6 12 15 9 8 -4 15 -10 15 -15z m2395 -9 c-7 -12
16 -60 26 -54 5 3 9 1 9 -5 0 -29 -23 -17 -39 20 -19 42 -19 65 0 53 5 -3 7
-9 4 -14z m-2238 -35 c-2 -5 -14 -15 -27 -22 l-24 -12 37 -21 c38 -22 47 -49
28 -80 -13 -19 -112 -23 -104 -4 4 11 0 12 -18 6 -29 -11 -71 22 -67 53 2 15
-2 19 -17 18 -37 -4 -47 4 -34 29 7 13 19 28 28 35 24 18 84 25 114 14 22 -8
29 -8 33 3 4 11 10 11 30 2 13 -6 22 -15 21 -21z m2837 6 c3 -5 -3 -11 -14
-14 -20 -5 -26 3 -13 16 9 10 21 9 27 -2z m586 -11 c8 -5 11 -12 8 -16 -10 -9
-38 3 -38 16 0 12 10 13 30 0z m2443 -10 c-14 -14 -46 -16 -50 -3 -2 6 4 13
14 15 24 6 47 -3 36 -12z m1433 -1 c3 -5 13 -9 23 -9 10 0 24 -7 32 -16 19
-23 -8 -38 -30 -17 -8 9 -30 22 -49 30 -18 7 -30 18 -27 22 6 10 43 3 51 -10z
m-6819 -43 c-6 -16 -37 -12 -37 5 0 4 8 5 17 2 13 -5 15 -3 9 13 -6 15 -4 16
5 7 6 -6 9 -19 6 -27z m2313 14 c0 -5 -2 -10 -4 -10 -3 0 -8 5 -11 10 -3 6 -1
10 4 10 6 0 11 -4 11 -10z m-501 -27 c11 -23 10 -25 -3 -13 -9 7 -16 9 -16 4
0 -5 -4 -2 -9 6 -10 15 -6 30 8 30 4 0 13 -12 20 -27z m-2039 2 c0 -8 -2 -15
-4 -15 -2 0 -6 7 -10 15 -3 8 -1 15 4 15 6 0 10 -7 10 -15z m710 5 c0 -12 -35
-31 -44 -23 -8 9 14 33 30 33 8 0 14 -4 14 -10z m-520 -23 c0 -12 -48 -30 -64
-24 -21 8 -20 25 2 29 27 7 62 4 62 -5z m-250 -16 c0 -6 9 -10 20 -10 11 -1
29 -1 40 -2 23 0 28 -29 5 -29 -8 0 -15 -4 -15 -9 0 -5 -10 -12 -22 -15 -23
-6 -23 -7 -3 -18 11 -6 23 -17 28 -24 4 -7 23 -18 43 -24 48 -16 43 -44 -8
-47 -31 -2 -37 2 -42 22 -4 14 -13 25 -21 25 -8 0 -32 9 -52 20 -38 20 -123
30 -93 10 20 -13 4 -13 -21 0 -24 13 -24 29 2 59 17 20 29 25 70 24 38 0 49 3
45 13 -3 8 1 14 9 14 8 0 15 -4 15 -9z m-362 -33 c14 -21 34 -36 59 -43 49
-14 58 -42 11 -38 -36 4 -81 -25 -76 -49 2 -7 -7 -14 -19 -16 -12 -2 -27 -10
-33 -18 -7 -8 -19 -14 -28 -14 -12 0 -13 10 -8 61 9 74 14 89 33 89 8 0 11 5
8 11 -5 8 18 43 32 48 0 1 10 -13 21 -31z m802 28 c0 -3 -4 -8 -10 -11 -5 -3
-10 -1 -10 4 0 6 5 11 10 11 6 0 10 -2 10 -4z m-150 -14 c0 -12 -32 -29 -70
-37 -42 -9 -34 2 18 26 43 20 52 22 52 11z m-173 -34 c-3 -8 -6 -5 -6 6 -1 11
2 17 5 13 3 -3 4 -12 1 -19z m1183 3 c0 -11 -26 -22 -34 -14 -12 12 -5 23 14
23 11 0 20 -4 20 -9z m-1125 -10 c3 -5 1 -12 -5 -16 -5 -3 -10 1 -10 9 0 18 6
21 15 7z m-354 -57 c-9 -21 -14 -24 -26 -14 -12 10 -12 15 2 36 22 34 42 16
24 -22z m1499 30 c0 -8 -5 -12 -10 -9 -6 4 -8 11 -5 16 9 14 15 11 15 -7z
m-291 -33 c-15 -5 -22 6 -14 19 6 9 10 9 16 -1 5 -8 4 -15 -2 -18z m-1899 10
c0 -12 -29 -23 -41 -15 -5 3 -7 10 -4 15 8 12 45 12 45 0z m1935 -32 c-4 -5
-13 -9 -21 -9 -12 0 -12 2 -2 14 14 15 32 11 23 -5z m6060 11 c3 -5 -1 -10 -9
-10 -9 0 -16 5 -16 10 0 6 4 10 9 10 6 0 13 -4 16 -10z m-6322 -12 c-2 -5 1
-8 6 -8 17 0 13 -17 -5 -24 -12 -4 -15 -2 -10 9 3 8 1 15 -4 15 -11 0 -13 -11
-4 -34 5 -13 8 -14 20 -1 11 10 29 12 67 8 62 -7 68 -11 60 -42 -4 -15 -8 -19
-13 -11 -6 9 -13 9 -29 1 -27 -15 -28 -34 -1 -26 16 5 19 3 13 -11 -4 -12 -3
-15 5 -10 7 4 12 1 12 -9 0 -11 7 -14 23 -11 45 10 101 34 105 46 3 9 6 9 12
1 3 -7 7 1 7 16 2 47 10 93 18 101 5 4 5 -2 1 -12 -6 -19 -6 -19 12 -3 11 10
35 17 61 17 39 0 41 -1 31 -20 -6 -11 -8 -26 -4 -32 5 -8 2 -9 -10 -5 -14 6
-16 3 -11 -13 5 -16 2 -20 -19 -20 -30 0 -43 -15 -14 -17 11 -1 26 -10 33 -20
12 -16 10 -20 -11 -31 -44 -23 -28 -31 67 -33 20 0 28 -6 32 -24 2 -14 -1 -30
-8 -35 -9 -8 -18 -2 -34 22 -18 28 -27 27 -22 -4 1 -11 -31 4 -51 24 -20 20
-41 23 -68 8 -12 -6 -17 -16 -13 -26 5 -13 8 -13 24 2 29 26 23 1 -7 -27 -16
-15 -23 -18 -19 -8 8 20 -25 35 -36 17 -4 -7 -6 -15 -3 -17 3 -3 9 1 14 9 7
11 9 9 7 -8 -1 -14 -6 -21 -14 -17 -8 2 -22 -3 -32 -13 -27 -26 -62 -47 -72
-45 -5 2 -11 -8 -15 -21 -3 -13 -11 -23 -17 -23 -36 1 -49 -4 -44 -17 4 -9 -6
-18 -26 -26 -18 -7 -58 -26 -90 -42 -56 -28 -106 -31 -91 -6 5 7 1 9 -9 5 -12
-5 -19 1 -23 18 -4 16 -14 25 -32 27 -17 2 -27 9 -27 19 0 9 -26 38 -57 64
-32 26 -58 51 -58 56 0 5 0 12 1 15 0 4 -3 10 -8 13 -15 10 -53 96 -53 119 0
12 -4 22 -10 22 -5 0 -10 4 -10 10 0 6 3 9 8 9 24 -4 52 3 65 16 8 8 17 11 21
8 3 -3 11 -1 18 4 20 16 68 25 68 13 0 -7 8 -5 21 3 18 13 24 13 50 0 16 -8
34 -11 40 -7 7 4 21 8 33 9 11 1 24 3 28 4 4 0 4 8 1 18 -4 9 -2 14 3 10 6 -3
16 -2 24 3 16 10 80 8 73 -2z m-2569 -10 c-3 -4 -12 -8 -19 -8 -8 0 -12 -6 -9
-13 2 -7 17 -12 34 -11 44 3 37 -21 -11 -40 -29 -12 -45 -14 -52 -7 -8 8 -7
11 1 11 7 0 12 5 12 10 0 6 -6 10 -13 10 -22 0 -17 35 6 46 27 11 57 13 51 2z
m1476 -17 c0 -10 -38 -41 -50 -41 -7 0 -7 7 0 20 6 11 7 20 3 20 -4 0 -2 4 6
9 15 9 41 4 41 -8z m302 -3 c-12 -12 -35 -1 -27 12 3 5 13 6 21 3 10 -4 12 -9
6 -15z m326 -9 c17 -27 11 -33 -21 -18 -21 9 -30 9 -42 -1 -19 -16 -19 -40 0
-40 8 0 15 -6 15 -14 0 -7 -7 -19 -15 -26 -8 -7 -15 -9 -15 -5 0 4 -8 -3 -18
-15 -11 -14 -23 -19 -35 -15 -25 10 -21 27 12 54 24 20 29 30 24 53 -5 24 -2
28 16 28 11 0 21 5 21 10 0 19 45 10 58 -11z m-548 1 c14 -8 17 -16 11 -43 -5
-18 -13 -42 -19 -54 -17 -32 -15 -57 7 -70 12 -8 17 -19 14 -32 -3 -13 1 -21
16 -26 12 -3 21 -13 21 -22 0 -8 9 -17 20 -20 11 -3 20 -11 20 -18 0 -7 9 -23
21 -36 16 -19 19 -20 15 -6 -3 11 -3 24 1 30 5 7 8 25 8 42 0 21 5 31 19 33
15 3 18 0 14 -16 -4 -16 1 -23 23 -32 32 -14 33 -16 19 -33 -48 -59 -61 -77
-54 -77 4 0 -3 -11 -16 -25 -30 -31 -45 -31 -91 1 -37 26 -88 34 -121 19 -10
-4 -25 -4 -34 -1 -13 5 -14 9 -4 21 11 13 8 14 -20 11 -22 -2 -33 1 -38 12 -3
9 0 18 7 20 9 3 9 7 1 18 -7 7 -9 18 -5 24 10 17 49 29 56 18 4 -5 16 4 29 22
22 31 22 31 2 36 -23 7 -44 47 -36 69 4 9 3 15 -2 14 -23 -4 -34 2 -34 19 0
38 50 57 68 26 10 -18 16 -12 26 29 4 16 2 27 -4 27 -5 0 -10 7 -10 15 0 17
41 20 70 5z m2440 -23 c0 -3 -6 -7 -13 -10 -8 -3 -14 4 -15 20 -2 22 0 23 13
9 8 -8 15 -17 15 -19z m-4090 13 c0 -5 -7 -10 -15 -10 -8 0 -15 5 -15 10 0 6
7 10 15 10 8 0 15 -4 15 -10z m2070 -5 c11 -13 10 -14 -4 -9 -9 3 -16 10 -16
15 0 13 6 11 20 -6z m6660 -37 c0 -12 -13 -9 -32 6 -10 7 -15 16 -12 19 7 7
44 -14 44 -25z m-8730 2 c0 -5 -2 -10 -4 -10 -3 0 -8 5 -11 10 -3 6 -1 10 4
10 6 0 11 -4 11 -10z m1407 -12 c-3 -8 -6 -5 -6 6 -1 11 2 17 5 13 3 -3 4 -12
1 -19z m2943 -9 c0 -18 -14 -24 -53 -21 -10 1 -15 -3 -12 -8 3 -6 -3 -10 -14
-10 -28 0 -27 5 11 39 35 31 68 31 68 0z m-2390 1 c0 -5 -4 -10 -9 -10 -6 0
-13 5 -16 10 -3 6 1 10 9 10 9 0 16 -4 16 -10z m80 -52 c0 -16 -7 -19 -42 -16
-56 4 -65 32 -16 53 29 12 34 12 46 -2 6 -9 12 -25 12 -35z m-617 36 c9 -10
-4 -34 -19 -34 -16 0 -16 2 -8 24 6 17 16 20 27 10z m73 -109 c-1 -24 -8 -39
-24 -51 -22 -15 -24 -15 -37 2 -8 11 -15 25 -15 32 0 25 25 52 51 52 23 0 26
-4 25 -35z m504 25 c8 13 10 13 10 -2 0 -9 -9 -20 -21 -23 -25 -8 -34 -1 -25
22 6 15 8 15 17 3 8 -13 10 -13 19 0z m1145 0 c3 -5 -1 -10 -9 -10 -9 0 -16 5
-16 10 0 6 4 10 9 10 6 0 13 -4 16 -10z m5782 -6 c-3 -3 -12 -4 -19 -1 -8 3
-5 6 6 6 11 1 17 -2 13 -5z m-70 -60 c-3 -3 -12 -4 -19 -1 -8 3 -5 6 6 6 11 1
17 -2 13 -5z m-9264 -30 c3 -4 2 -15 -4 -25 -12 -23 -44 -26 -35 -3 3 9 6 20
6 25 0 10 23 12 33 3z m2365 -23 c3 -16 -1 -22 -10 -19 -7 3 -15 15 -16 27 -3
16 1 22 10 19 7 -3 15 -15 16 -27z m-859 10 c7 -5 10 -14 7 -20 -10 -16 -43
-14 -49 3 -10 25 14 34 42 17z m-472 -38 c13 -33 -74 -73 -92 -42 -9 14 41 59
66 59 11 0 22 -7 26 -17z m2277 -12 c3 -5 -8 -11 -24 -13 -29 -4 -37 1 -23 15
9 10 41 9 47 -2z m4421 -41 c3 -5 -1 -10 -10 -10 -9 0 -13 5 -10 10 3 6 8 10
10 10 2 0 7 -4 10 -10z m-245 -104 c0 -2 -7 -6 -15 -10 -8 -3 -15 -1 -15 4 0
6 7 10 15 10 8 0 15 -2 15 -4z m-8247 -63 c-7 -2 -19 -2 -25 0 -7 3 -2 5 12 5
14 0 19 -2 13 -5z m1070 -13 c12 0 29 -5 37 -10 13 -9 12 -12 -4 -25 -36 -27
-49 -21 -59 30 -4 17 -4 24 -1 18 3 -7 15 -13 27 -13z m-1023 -35 c0 -18 -45
-49 -60 -40 -16 10 -12 33 8 44 25 15 52 13 52 -4z m1090 -21 c13 -5 13 -6 0
-14 -29 -19 -75 -9 -55 12 7 6 37 7 55 2z m-190 -44 c0 -5 -8 -10 -17 -10 -15
0 -16 2 -3 10 19 12 20 12 20 0z m-69 -18 c-7 -2 -18 1 -23 6 -8 8 -4 9 13 5
13 -4 18 -8 10 -11z m185 -19 l21 -27 12 22 c15 29 43 43 62 31 12 -8 11 -11
-4 -20 -11 -6 -16 -17 -12 -28 5 -16 -2 -18 -59 -17 -35 1 -59 4 -52 8 7 5 6
8 -4 8 -13 0 -13 1 0 10 11 7 9 11 -12 19 -14 5 -29 15 -34 22 -15 25 60 -1
82 -28z m167 13 c9 -7 17 -18 17 -24 0 -6 7 -9 15 -6 20 8 20 -20 -1 -37 -20
-16 -50 1 -46 25 2 12 -3 16 -15 14 -12 -2 -19 4 -21 20 -4 26 22 30 51 8z
m139 -83 c16 -15 21 -15 28 -3 6 10 28 14 80 13 61 -1 74 -4 86 -22 9 -12 25
-21 37 -21 20 0 19 -2 -7 -15 -39 -20 -52 -19 -72 8 -13 17 -15 18 -10 3 6
-17 5 -17 -11 -5 -15 12 -16 12 -11 -2 7 -18 -13 -19 -107 -5 -59 9 -64 13
-58 36 5 19 2 20 -21 14 -14 -3 -26 -2 -26 2 0 17 73 15 92 -3z m1748 -132 c0
-11 -26 -22 -34 -14 -12 12 -5 23 14 23 11 0 20 -4 20 -9z m-25 -41 c3 -5 1
-10 -4 -10 -6 0 -11 5 -11 10 0 6 2 10 4 10 3 0 8 -4 11 -10z m5744 -59 c-16
-44 -59 -52 -74 -13 -8 21 20 42 56 42 27 0 27 -2 18 -29z m-89 -11 c0 -5 -7
-7 -15 -4 -8 4 -15 8 -15 10 0 2 7 4 15 4 8 0 15 -4 15 -10z m-4448 -172 c-12
-12 -35 -1 -27 12 3 5 13 6 21 3 10 -4 12 -9 6 -15z m-853 -37 c8 -14 6 -22
-8 -35 -38 -34 -74 -12 -47 29 20 30 42 32 55 6z m3106 -1 c3 -5 1 -10 -4 -10
-6 0 -11 5 -11 10 0 6 2 10 4 10 3 0 8 -4 11 -10z m-1690 -20 c-3 -5 -11 -10
-16 -10 -6 0 -7 5 -4 10 3 6 11 10 16 10 6 0 7 -4 4 -10z m-5095 -35 c0 -8 -2
-15 -4 -15 -2 0 -6 7 -10 15 -3 8 -1 15 4 15 6 0 10 -7 10 -15z m-136 -100 c3
-8 1 -15 -4 -15 -6 0 -10 7 -10 15 0 8 2 15 4 15 2 0 6 -7 10 -15z m4800 -91
c21 -20 20 -33 -3 -63 -24 -31 -41 -20 -41 28 0 53 15 65 44 35z m-4794 -58
c0 -2 -8 -10 -17 -17 -16 -13 -17 -12 -4 4 13 16 21 21 21 13z m5710 -5 c0
-19 -22 -23 -38 -7 -15 15 -14 16 11 16 15 0 27 -4 27 -9z m-496 -17 c9 -3 16
-12 16 -20 0 -8 5 -14 11 -14 5 0 7 -5 4 -11 -4 -6 2 -13 14 -16 17 -4 19 -10
14 -36 -3 -17 -18 -43 -32 -58 -14 -15 -36 -41 -49 -58 -14 -18 -29 -28 -35
-24 -7 4 -6 -1 2 -11 13 -15 13 -19 0 -27 -8 -5 -17 -9 -20 -9 -13 0 0 98 18
140 13 29 18 58 15 82 -7 60 4 76 42 62z m336 -4 c0 -5 -2 -10 -4 -10 -3 0 -8
5 -11 10 -3 6 -1 10 4 10 6 0 11 -4 11 -10z m104 0 c34 0 7 -14 -29 -15 -24 0
-35 4 -35 13 0 10 7 12 23 8 12 -3 31 -6 41 -6z m-5734 -15 c-7 -8 -17 -12
-23 -8 -6 4 -3 9 9 14 27 11 28 11 14 -6z m6417 -21 c7 -18 -14 -35 -37 -31
-8 1 -16 12 -18 25 -3 18 1 22 23 22 14 0 28 -7 32 -16z m-2097 -58 c0 -11
-19 -15 -25 -6 -3 5 1 10 9 10 9 0 16 -2 16 -4z m-290 -16 c0 -5 -4 -10 -10
-10 -5 0 -10 5 -10 10 0 6 5 10 10 10 6 0 10 -4 10 -10z m1050 -10 c0 -5 -5
-10 -11 -10 -5 0 -7 5 -4 10 3 6 8 10 11 10 2 0 4 -4 4 -10z m-620 -21 c0 -5
-4 -9 -10 -9 -5 0 -10 7 -10 16 0 8 5 12 10 9 6 -3 10 -10 10 -16z m1950 -185
c0 -8 -9 -14 -20 -14 -19 0 -27 19 -14 33 10 9 34 -4 34 -19z m-6347 -130 c9
-10 -4 -34 -18 -34 -20 0 -30 21 -14 31 17 10 24 11 32 3z m6507 -184 c0 -5
-2 -10 -4 -10 -3 0 -8 5 -11 10 -3 6 -1 10 4 10 6 0 11 -4 11 -10z m-1822
-258 c10 -10 24 -16 32 -14 7 3 18 -2 24 -10 6 -8 19 -17 29 -21 9 -3 17 -12
17 -18 0 -8 -4 -8 -13 -1 -7 6 -24 8 -36 5 -18 -4 -28 0 -42 18 l-19 24 0 -22
c0 -13 5 -23 10 -23 6 0 10 -9 10 -20 0 -22 -7 -25 -29 -11 -17 11 -26 111
-11 111 6 0 18 -8 28 -18z m325 -31 c-2 -7 18 -10 61 -8 36 1 69 -2 74 -8 5
-5 12 -31 16 -58 5 -43 4 -47 -12 -38 -9 5 -64 8 -121 7 -87 -1 -108 2 -128
17 -12 10 -28 15 -35 12 -7 -4 -4 0 7 9 35 27 43 35 47 46 2 8 11 8 32 0 20
-7 32 -8 40 0 7 7 5 10 -7 10 -20 0 -23 16 -4 23 17 7 32 1 30 -12z m-663 -41
c0 -18 -2 -19 -20 -8 -11 7 -20 16 -20 20 0 5 9 8 20 8 13 0 20 -7 20 -20z
m510 0 c-20 -13 -40 -13 -40 0 0 6 12 10 28 10 21 0 24 -2 12 -10z m-280 -4
c0 -3 -4 -8 -10 -11 -5 -3 -10 -1 -10 4 0 6 5 11 10 11 6 0 10 -2 10 -4z
m-4040 -72 c0 -8 -4 -12 -10 -9 -5 3 -10 13 -10 21 0 8 5 12 10 9 6 -3 10 -13
10 -21z m4140 -39 c10 -12 9 -15 -8 -15 -11 0 -22 7 -26 15 -3 9 0 15 8 15 7
0 19 -7 26 -15z m-1980 -5 c0 -5 -4 -10 -10 -10 -5 0 -10 5 -10 10 0 6 5 10
10 10 6 0 10 -4 10 -10z m-2560 -25 c-7 -9 -15 -13 -18 -10 -3 2 1 11 8 20 7
9 15 13 18 10 3 -2 -1 -11 -8 -20z m4974 13 c7 6 56 -18 56 -27 0 -3 -18 -14
-39 -25 -38 -18 -61 -16 -61 5 0 6 5 7 10 4 6 -3 10 -1 10 4 0 6 -8 11 -18 11
-24 0 -32 8 -26 25 4 9 14 11 34 5 16 -4 31 -6 34 -2z m-79 -28 c3 -5 2 -10
-4 -10 -5 0 -13 5 -16 10 -3 6 -2 10 4 10 5 0 13 -4 16 -10z m180 -60 c8 -13
-5 -13 -25 0 -13 8 -13 10 2 10 9 0 20 -4 23 -10z m-3365 -40 c0 -5 -4 -10 -9
-10 -6 0 -13 5 -16 10 -3 6 1 10 9 10 9 0 16 -4 16 -10z m2620 -59 c0 -5 20
-6 45 -3 30 3 45 1 45 -7 0 -6 15 -11 33 -11 24 0 28 -3 17 -10 -13 -8 -13
-10 2 -10 9 0 19 4 23 9 3 5 20 8 38 6 244 -31 269 -34 412 -44 106 -8 130
-13 205 -46 47 -21 92 -43 100 -50 8 -7 48 -27 89 -45 81 -35 99 -48 95 -68
-1 -7 0 -8 3 -2 5 10 33 14 33 5 0 -3 -9 -16 -21 -28 -20 -22 -22 -22 -437
-25 -441 -3 -492 1 -492 40 0 10 -4 18 -10 18 -5 0 -10 8 -10 18 0 9 -14 37
-30 61 -17 24 -30 52 -30 63 0 12 -7 18 -21 18 -15 0 -19 5 -15 18 5 17 -24
62 -41 62 -15 0 -63 25 -63 33 0 4 7 7 15 7 8 0 15 -4 15 -9z m777 -21 c18
-22 16 -28 -10 -26 -15 0 -22 8 -23 23 -2 25 14 26 33 3z m1353 -61 c0 -11
-27 -12 -34 0 -3 4 -3 11 0 14 8 8 34 -3 34 -14z m-1285 1 c3 -5 1 -10 -4 -10
-6 0 -11 5 -11 10 0 6 2 10 4 10 3 0 8 -4 11 -10z m485 -194 c0 -19 -28 -28
-51 -15 -26 14 -15 29 22 29 18 0 29 -5 29 -14z m-116 -7 c14 -7 22 -17 19
-25 -3 -8 1 -14 8 -14 7 0 10 -2 7 -5 -3 -3 -29 0 -57 7 l-53 12 24 18 c28 21
22 20 52 7z m-1364 -27 c0 -13 -12 -22 -22 -16 -10 6 -1 24 13 24 5 0 9 -4 9
-8z m-3360 -42 c-8 -5 -19 -10 -25 -10 -5 0 -3 5 5 10 8 5 20 10 25 10 6 0 3
-5 -5 -10z m3229 -21 c30 -11 37 -19 25 -32 -9 -8 -64 21 -64 33 0 12 0 12 39
-1z m222 -62 c-13 -13 -26 -3 -16 12 3 6 11 8 17 5 6 -4 6 -10 -1 -17z m-187
-13 c24 -9 19 -24 -9 -24 -18 0 -23 4 -19 15 7 17 7 17 28 9z m-1609 -213 c3
-5 1 -12 -5 -16 -5 -3 -10 1 -10 9 0 18 6 21 15 7z m2810 -121 c0 -22 -29 -18
-33 3 -3 14 1 18 15 15 10 -2 18 -10 18 -18z m18 -43 c10 -26 -2 -130 -16
-144 -13 -14 -19 -12 -51 13 -33 27 -35 31 -29 74 3 25 10 51 16 58 12 16 73
16 80 -1z m-465 -235 c2 -7 -3 -12 -12 -12 -9 0 -16 7 -16 16 0 17 22 14 28
-4z m352 -83 c0 -6 -4 -7 -10 -4 -5 3 -10 11 -10 16 0 6 5 7 10 4 6 -3 10 -11
10 -16z m-2140 -129 c0 -5 -2 -10 -4 -10 -3 0 -8 5 -11 10 -3 6 -1 10 4 10 6
0 11 -4 11 -10z m-40 -40 c0 -5 -2 -10 -4 -10 -3 0 -8 5 -11 10 -3 6 -1 10 4
10 6 0 11 -4 11 -10z m1905 -170 c3 -5 -3 -10 -14 -10 -11 0 -23 5 -26 10 -3
6 3 10 14 10 11 0 23 -4 26 -10z m395 -31 c6 -10 9 -19 6 -19 -9 0 -36 31 -36
41 0 14 18 1 30 -22z m124 -64 c3 -8 1 -15 -4 -15 -6 0 -10 7 -10 15 0 8 2 15
4 15 2 0 6 -7 10 -15z m76 -5 c0 -5 -5 -10 -11 -10 -5 0 -7 5 -4 10 3 6 8 10
11 10 2 0 4 -4 4 -10z m-20 -110 c0 -11 -2 -20 -5 -20 -2 0 -9 9 -15 20 -9 16
-8 20 5 20 8 0 15 -9 15 -20z m178 -122 c29 -67 35 -132 14 -158 l-17 -21 -29
30 c-21 22 -29 40 -29 68 0 46 20 123 33 123 5 0 18 -19 28 -42z m-268 -8 c0
-5 -4 -10 -10 -10 -5 0 -10 5 -10 10 0 6 5 10 10 10 6 0 10 -4 10 -10z m188
-505 c-3 -3 -9 2 -12 12 -6 14 -5 15 5 6 7 -7 10 -15 7 -18z m-329 -92 c6 -12
8 -30 5 -38 -5 -12 -9 -11 -24 8 -9 12 -25 37 -34 56 l-18 33 30 -18 c17 -9
35 -28 41 -41z m381 -83 c0 -5 -7 -10 -15 -10 -8 0 -15 5 -15 10 0 6 7 10 15
10 8 0 15 -4 15 -10z m-144 -134 c3 -23 -20 -15 -24 8 -3 11 1 17 9 14 7 -2
13 -12 15 -22z m-902 -5 c3 -4 3 -11 0 -14 -8 -8 -34 3 -34 14 0 11 27 12 34
0z m758 -67 c-9 -16 -11 -14 -25 13 -20 37 -10 51 16 24 15 -14 17 -23 9 -37z
m-610 -20 c20 -4 39 -13 42 -20 8 -22 -58 -17 -85 6 -27 21 -19 24 43 14z
m133 -57 c29 -22 4 -26 -40 -6 l-40 18 31 0 c16 1 38 -5 49 -12z"/>
<path d="M7082 8659 c-12 -11 -20 -25 -16 -31 4 -5 9 -6 13 -2 3 5 15 14 25
20 11 6 22 16 24 22 6 19 -22 14 -46 -9z"/>
<path d="M6866 8649 c-15 -12 -25 -23 -22 -26 5 -5 86 35 86 42 0 13 -40 3
-64 -16z"/>
<path d="M7233 8621 c0 -11 5 -17 9 -15 11 7 10 34 -1 34 -6 0 -9 -9 -8 -19z"/>
<path d="M6353 6935 c0 -8 4 -12 9 -9 5 3 6 10 3 15 -9 13 -12 11 -12 -6z"/>
<path d="M6587 6913 c-4 -3 -7 -11 -7 -17 0 -6 5 -5 12 2 6 6 9 14 7 17 -3 3
-9 2 -12 -2z"/>
<path d="M6397 6895 c3 -8 9 -12 14 -9 12 7 11 11 -5 17 -10 4 -13 1 -9 -8z"/>
<path d="M6459 6879 c28 -17 71 -22 71 -8 0 16 -29 28 -63 27 l-37 -1 29 -18z"/>
<path d="M6436 6731 c-4 -7 -5 -15 -2 -18 9 -9 19 4 14 18 -4 11 -6 11 -12 0z"/>
<path d="M7342 6225 c0 -16 2 -22 5 -12 2 9 2 23 0 30 -3 6 -5 -1 -5 -18z"/>
<path d="M7376 6178 c3 -5 10 -6 15 -3 13 9 11 12 -6 12 -8 0 -12 -4 -9 -9z"/>
<path d="M5717 6842 c-23 -25 -21 -31 6 -24 24 6 38 22 31 34 -8 13 -20 9 -37
-10z"/>
<path d="M5370 6780 c0 -5 5 -10 11 -10 5 0 7 5 4 10 -3 6 -8 10 -11 10 -2 0
-4 -4 -4 -10z"/>
<path d="M5360 6708 c0 -5 9 -8 19 -8 11 0 22 3 24 8 3 4 -6 7 -19 7 -13 0
-24 -3 -24 -7z"/>
<path d="M5079 6595 c-1 -6 -1 -14 0 -19 1 -4 -6 -14 -15 -21 -21 -15 -3 -29
27 -20 15 5 18 12 13 28 -7 26 -23 46 -25 32z"/>
<path d="M6130 6350 c0 -5 7 -7 15 -4 8 4 15 8 15 10 0 2 -7 4 -15 4 -8 0 -15
-4 -15 -10z"/>
<path d="M6302 6134 c-14 -10 -13 -13 9 -24 23 -13 23 -12 9 5 -13 17 -13 18
0 13 8 -3 21 0 27 8 10 10 9 12 -8 11 -12 -1 -28 -7 -37 -13z"/>
<path d="M3881 10191 c-7 -5 -11 -14 -7 -20 7 -11 46 7 46 21 0 11 -22 10 -39
-1z"/>
<path d="M3836 10133 c-6 -14 -5 -15 5 -6 7 7 10 15 7 18 -3 3 -9 -2 -12 -12z"/>
<path d="M4205 10140 c11 -5 27 -9 35 -9 13 -1 13 0 0 9 -8 5 -24 9 -35 9
l-20 0 20 -9z"/>
<path d="M4385 10110 c3 -5 8 -10 11 -10 2 0 4 5 4 10 0 6 -5 10 -11 10 -5 0
-7 -4 -4 -10z"/>
<path d="M4440 10110 c0 -5 8 -7 18 -4 14 5 14 4 2 -4 -10 -8 -18 -8 -27 0
-10 8 -12 7 -7 -6 7 -18 29 -22 39 -6 3 6 16 10 28 11 21 0 21 1 2 9 -28 12
-55 12 -55 0z"/>
<path d="M3825 10100 c-4 -6 -11 -8 -16 -5 -5 4 -9 -2 -9 -11 0 -16 1 -16 20
1 11 10 20 20 20 22 0 7 -9 3 -15 -7z"/>
<path d="M3885 10090 c3 -5 8 -10 11 -10 2 0 4 5 4 10 0 6 -5 10 -11 10 -5 0
-7 -4 -4 -10z"/>
<path d="M3830 10060 c8 -5 22 -9 30 -9 10 0 8 3 -5 9 -27 12 -43 12 -25 0z"/>
<path d="M4337 10056 c-4 -10 0 -14 14 -13 10 1 19 7 19 14 0 18 -27 16 -33
-1z"/>
<path d="M3805 10020 c-8 -13 5 -90 21 -127 10 -21 22 -33 34 -33 27 0 25 5
-9 43 -32 34 -32 47 2 48 18 0 16 3 -10 15 -35 15 -44 27 -17 22 10 -2 19 2
20 7 5 14 -33 37 -41 25z"/>
<path d="M4467 9983 c-4 -3 -7 -11 -7 -17 0 -6 5 -5 12 2 6 6 9 14 7 17 -3 3
-9 2 -12 -2z"/>
<path d="M4165 9933 c3 -7 1 -13 -4 -13 -12 0 -15 -26 -3 -33 4 -3 12 1 19 8
9 10 8 17 -3 31 -9 11 -13 13 -9 7z"/>
<path d="M4480 9921 c0 -6 4 -13 10 -16 6 -3 7 1 4 9 -7 18 -14 21 -14 7z"/>
<path d="M4477 9861 c-4 -17 -3 -21 5 -13 5 5 8 16 6 23 -3 8 -7 3 -11 -10z"/>
<path d="M4157 9849 c4 -13 8 -18 11 -10 2 7 -1 18 -6 23 -8 8 -9 4 -5 -13z"/>
<path d="M4085 9850 c-3 -5 -1 -10 4 -10 6 0 11 5 11 10 0 6 -2 10 -4 10 -3 0
-8 -4 -11 -10z"/>
<path d="M3975 9820 c-3 -5 -1 -10 4 -10 6 0 11 5 11 10 0 6 -2 10 -4 10 -3 0
-8 -4 -11 -10z"/>
<path d="M3900 9810 c0 -5 5 -10 10 -10 6 0 10 5 10 10 0 6 -4 10 -10 10 -5 0
-10 -4 -10 -10z"/>
<path d="M4338 9743 c-10 -2 -18 -9 -18 -14 0 -6 8 -5 20 1 11 6 20 13 20 15
0 3 -1 4 -2 4 -2 -1 -11 -3 -20 -6z"/>
<path d="M3420 8710 c0 -6 8 -14 18 -17 9 -4 20 -10 23 -15 3 -5 13 -6 23 -2
16 6 16 8 0 25 -18 20 -64 26 -64 9z"/>
<path d="M4225 8566 c-47 -12 -49 -13 -22 -21 22 -6 27 -12 22 -29 -2 -11 -2
-15 1 -8 3 6 9 10 14 7 13 -8 60 17 60 32 0 7 5 13 10 13 6 0 10 5 10 10 0 13
-32 11 -95 -4z"/>
<path d="M4095 8530 c3 -5 8 -10 11 -10 2 0 4 5 4 10 0 6 -5 10 -11 10 -5 0
-7 -4 -4 -10z"/>
<path d="M4043 8523 c9 -2 23 -2 30 0 6 3 -1 5 -18 5 -16 0 -22 -2 -12 -5z"/>
<path d="M11938 8450 c9 -27 19 -50 24 -50 10 0 11 -54 1 -64 -16 -16 -6 -42
28 -76 41 -41 73 -104 66 -131 -6 -23 8 -54 41 -89 12 -13 22 -32 22 -41 0
-27 15 -31 35 -9 10 11 14 20 10 20 -4 0 -1 8 8 18 11 12 13 22 7 32 -8 13
-10 13 -10 -1 0 -22 -29 -33 -47 -18 -20 17 13 52 44 46 13 -2 23 -1 23 3 0 4
13 13 29 20 l30 12 -27 41 c-15 23 -36 51 -48 62 -12 11 -30 33 -40 50 -29 46
-192 225 -205 225 -4 0 0 -22 9 -50z"/>
<path d="M12346 7966 c7 -19 48 -22 42 -3 -3 6 -14 13 -26 15 -16 3 -20 -1
-16 -12z"/>
<path d="M12135 7930 c3 -5 8 -10 11 -10 2 0 4 5 4 10 0 6 -5 10 -11 10 -5 0
-7 -4 -4 -10z"/>
<path d="M12446 7835 c-16 -24 -15 -25 3 -25 24 0 51 10 51 19 0 3 -9 12 -19
18 -16 10 -22 8 -35 -12z"/>
<path d="M12507 7759 c6 -21 4 -21 -39 -15 -43 6 -47 5 -77 -29 -37 -42 -40
-53 -8 -33 15 11 29 13 46 6 18 -6 27 -4 36 8 7 10 19 15 27 11 12 -4 17 3 22
25 8 41 8 48 -3 48 -5 0 -7 -10 -4 -21z"/>
<path d="M12481 7681 c-11 -7 -9 -10 8 -16 25 -8 36 -2 26 14 -8 13 -15 14
-34 2z"/>
<path d="M12500 7569 c0 -15 18 -19 23 -6 3 8 -1 14 -9 14 -8 0 -14 -4 -14 -8z"/>
<path d="M4680 5001 c0 -11 -7 -26 -15 -34 -17 -18 -31 -80 -27 -122 2 -21 14
-38 38 -55 19 -14 41 -39 50 -56 8 -17 26 -36 39 -42 28 -13 33 -32 9 -32 -30
0 5 -29 48 -41 50 -13 61 -4 79 59 7 26 21 64 32 84 10 21 16 46 12 57 -3 11
-1 22 5 26 21 13 11 77 -16 101 -28 27 -40 30 -46 12 -6 -17 -58 17 -58 37 0
17 -26 21 -32 5 -2 -7 -13 -7 -33 -1 -70 22 -85 23 -85 2z"/>
<path d="M1902 4910 c0 -19 2 -27 5 -17 2 9 2 25 0 35 -3 9 -5 1 -5 -18z"/>
<path d="M2031 4771 c-11 -20 -5 -31 17 -31 18 0 56 -40 60 -64 2 -10 -1 -16
-6 -13 -4 4 -21 -1 -36 -8 -16 -8 -32 -13 -36 -10 -4 3 -10 -5 -14 -17 -3 -14
0 -26 9 -31 8 -4 15 -14 15 -21 0 -6 11 -27 24 -45 22 -29 24 -42 22 -109 -2
-55 1 -80 11 -90 12 -12 16 -12 28 4 13 18 14 17 25 -11 11 -30 12 -30 23 -8
9 16 16 19 28 12 22 -12 42 10 29 31 -8 12 -10 10 -10 -7 0 -16 -4 -21 -15
-17 -17 7 -19 22 -5 44 8 13 13 13 31 2 19 -12 21 -12 16 2 -4 9 -2 16 3 16
17 0 -1 82 -28 132 -15 26 -30 44 -34 42 -4 -3 -5 2 -2 10 7 19 -7 21 -24 4
-8 -8 -12 -9 -12 -1 0 6 5 13 11 15 14 5 -45 114 -60 111 -6 -2 -11 4 -11 12
0 8 -9 19 -21 25 -12 7 -18 18 -15 26 8 21 -12 17 -23 -5z m77 -146 c-3 -3 -9
2 -12 12 -6 14 -5 15 5 6 7 -7 10 -15 7 -18z m32 -31 c0 -8 -5 -12 -10 -9 -6
4 -8 11 -5 16 9 14 15 11 15 -7z"/>
<path d="M1997 4483 c-4 -3 -7 -16 -6 -27 0 -19 1 -19 10 3 10 24 8 36 -4 24z"/>
<path d="M2045 4420 c-3 -5 -1 -10 4 -10 6 0 11 5 11 10 0 6 -2 10 -4 10 -3 0
-8 -4 -11 -10z"/>
<path d="M2160 4249 c0 -5 5 -7 10 -4 6 3 10 8 10 11 0 2 -4 4 -10 4 -5 0 -10
-5 -10 -11z"/>
<path d="M2049 4123 c-13 -16 -12 -17 4 -4 9 7 17 15 17 17 0 8 -8 3 -21 -13z"/>
<path d="M2095 4110 c3 -5 10 -10 16 -10 5 0 9 5 9 10 0 6 -7 10 -16 10 -8 0
-12 -4 -9 -10z"/>
<path d="M2350 4000 c0 -12 28 -21 35 -11 2 5 -4 11 -15 14 -11 3 -20 2 -20
-3z"/>
<path d="M3602 3492 c-9 -6 -5 -12 13 -20 31 -14 46 -15 25 -2 -12 8 -12 10 5
10 17 0 17 2 5 10 -18 12 -31 12 -48 2z"/>
</g>
</svg>
